<svg width="330" height="330" viewBox="0 0 330 330" fill="none" xmlns="http://www.w3.org/2000/svg">
<rect width="330" height="330" rx="15" fill="#BBADA0"/>
<path d="M17 22C17 19.2386 19.2386 17 22 17H72C74.7614 17 77 19.2386 77 22V72C77 74.7614 74.7614 77 72 77H22C19.2386 77 17 74.7614 17 72V22Z" fill="#CCC0B3"/>
<path d="M17 179C17 176.239 19.2386 174 22 174H72C74.7614 174 77 176.239 77 179V229C77 231.761 74.7614 234 72 234H22C19.2386 234 17 231.761 17 229V179Z" fill="#EEE3DA"/>
<path d="M17 101C17 98.2386 19.2386 96 22 96H72C74.7614 96 77 98.2386 77 101V151C77 153.761 74.7614 156 72 156H22C19.2386 156 17 153.761 17 151V101Z" fill="#CCC0B3"/>
<path d="M17 257C17 254.239 19.2386 252 22 252H72C74.7614 252 77 254.239 77 257V307C77 309.761 74.7614 312 72 312H22C19.2386 312 17 309.761 17 307V257Z" fill="#EDE0C8"/>
<path d="M96 22C96 19.2386 98.2386 17 101 17H151C153.761 17 156 19.2386 156 22V72C156 74.7614 153.761 77 151 77H101C98.2386 77 96 74.7614 96 72V22Z" fill="#F59563"/>
<path d="M96 179C96 176.239 98.2386 174 101 174H151C153.761 174 156 176.239 156 179V229C156 231.761 153.761 234 151 234H101C98.2386 234 96 231.761 96 229V179Z" fill="#EDE0C8"/>
<path d="M96 101C96 98.2386 98.2386 96 101 96H151C153.761 96 156 98.2386 156 101V151C156 153.761 153.761 156 151 156H101C98.2386 156 96 153.761 96 151V101Z" fill="#CCC0B3"/>
<path d="M96 257C96 254.239 98.2386 252 101 252H151C153.761 252 156 254.239 156 257V307C156 309.761 153.761 312 151 312H101C98.2386 312 96 309.761 96 307V257Z" fill="#CCC0B3"/>
<path d="M174 22C174 19.2386 176.239 17 179 17H229C231.761 17 234 19.2386 234 22V72C234 74.7614 231.761 77 229 77H179C176.239 77 174 74.7614 174 72V22Z" fill="#CCC0B3"/>
<path d="M174 179C174 176.239 176.239 174 179 174H229C231.761 174 234 176.239 234 179V229C234 231.761 231.761 234 229 234H179C176.239 234 174 231.761 174 229V179Z" fill="#CCC0B3"/>
<path d="M174 101C174 98.2386 176.239 96 179 96H229C231.761 96 234 98.2386 234 101V151C234 153.761 231.761 156 229 156H179C176.239 156 174 153.761 174 151V101Z" fill="#CCC0B3"/>
<path d="M174 257C174 254.239 176.239 252 179 252H229C231.761 252 234 254.239 234 257V307C234 309.761 231.761 312 229 312H179C176.239 312 174 309.761 174 307V257Z" fill="#F2B179"/>
<path d="M252 22C252 19.2386 254.239 17 257 17H307C309.761 17 312 19.2386 312 22V72C312 74.7614 309.761 77 307 77H257C254.239 77 252 74.7614 252 72V22Z" fill="#CCC0B3"/>
<path d="M252 179C252 176.239 254.239 174 257 174H307C309.761 174 312 176.239 312 179V229C312 231.761 309.761 234 307 234H257C254.239 234 252 231.761 252 229V179Z" fill="#CCC0B3"/>
<path d="M252 101C252 98.2386 254.239 96 257 96H307C309.761 96 312 98.2386 312 101V151C312 153.761 309.761 156 307 156H257C254.239 156 252 153.761 252 151V101Z" fill="#EEE3DA"/>
<path d="M252 257C252 254.239 254.239 252 257 252H307C309.761 252 312 254.239 312 257V307C312 309.761 309.761 312 307 312H257C254.239 312 252 309.761 252 307V257Z" fill="#CCC0B3"/>
<path d="M289.2 134.138C286.24 133.938 283.7 133.858 281.58 133.898C281.52 133.898 281.36 133.908 281.1 133.928C280.86 133.928 280.6 133.938 280.32 133.958C280.04 133.958 279.81 133.958 279.63 133.958C279.11 133.978 278.7 133.988 278.4 133.988C278.2 134.008 278.05 134.008 277.95 133.988H277.74C277.58 133.988 277.41 133.958 277.23 133.898C276.73 133.698 276.24 133.398 275.76 132.998C275.3 132.578 275.02 132.048 274.92 131.408C274.8 130.728 274.97 130.008 275.43 129.248C275.71 128.768 276.15 128.218 276.75 127.598C277.23 127.118 278.45 126.028 280.41 124.328C282.07 122.888 283.26 121.768 283.98 120.968C284.86 119.948 285.31 119.168 285.33 118.628C285.35 117.648 285.12 116.928 284.64 116.468C284.18 115.988 283.56 115.728 282.78 115.688C281.94 115.668 281.13 115.898 280.35 116.378C279.59 116.838 279.04 117.478 278.7 118.298C278.68 118.378 278.66 118.518 278.64 118.718C278.6 119.338 278.58 119.658 278.58 119.678C278.5 120.158 278.29 120.508 277.95 120.728C277.63 120.928 277.28 121.008 276.9 120.968C276.52 120.908 276.19 120.738 275.91 120.458C275.65 120.158 275.54 119.758 275.58 119.258C275.6 119.158 275.61 119.028 275.61 118.868C275.63 118.688 275.65 118.558 275.67 118.478C275.71 117.978 275.8 117.558 275.94 117.218C276.32 116.238 276.87 115.408 277.59 114.728C278.33 114.048 279.16 113.538 280.08 113.198C281 112.838 281.93 112.668 282.87 112.688C283.91 112.728 284.84 112.998 285.66 113.498C286.5 113.978 287.16 114.658 287.64 115.538C288.12 116.418 288.35 117.468 288.33 118.688C288.29 119.968 287.59 121.388 286.23 122.948C285.47 123.808 284.19 125.018 282.39 126.578C280.53 128.178 279.36 129.218 278.88 129.698C278.46 130.138 278.16 130.508 277.98 130.808C277.96 130.828 277.95 130.858 277.95 130.898C277.99 130.938 278.05 130.968 278.13 130.988H278.34C278.62 130.988 279.02 130.978 279.54 130.958C279.72 130.958 279.95 130.958 280.23 130.958C280.53 130.938 280.8 130.928 281.04 130.928C281.3 130.908 281.46 130.898 281.52 130.898C283.74 130.858 286.36 130.938 289.38 131.138C289.88 131.158 290.24 131.328 290.46 131.648C290.7 131.968 290.8 132.328 290.76 132.728C290.74 133.108 290.59 133.448 290.31 133.748C290.05 134.028 289.68 134.158 289.2 134.138Z" fill="black"/>
<path d="M118.615 54.3599C118.595 54.8399 118.425 55.1999 118.105 55.4399C117.805 55.6799 117.455 55.7999 117.055 55.7999C116.675 55.7799 116.345 55.6499 116.065 55.4099C115.785 55.1499 115.655 54.7599 115.675 54.2399C115.835 49.0999 115.865 44.3999 115.765 40.1399C115.485 40.3999 115.175 40.6199 114.835 40.7999C114.155 41.2199 113.195 41.5399 111.955 41.7599C111.455 41.8599 111.055 41.7799 110.755 41.5199C110.455 41.2599 110.275 40.9399 110.215 40.5599C110.155 40.1599 110.215 39.7899 110.395 39.4499C110.595 39.1099 110.935 38.8999 111.415 38.8199C112.295 38.6599 112.925 38.4599 113.305 38.2199C113.725 37.9799 114.165 37.5299 114.625 36.8699V36.8399C114.625 36.7999 114.645 36.6999 114.685 36.5399C114.745 36.3599 114.785 36.2399 114.805 36.1799C115.205 34.9999 115.915 34.4399 116.935 34.4999C117.495 34.5399 117.915 34.7999 118.195 35.2799C118.335 35.4799 118.445 35.7299 118.525 36.0299C118.605 36.3499 118.655 36.7699 118.675 37.2899C118.695 37.5099 118.705 38.3499 118.705 39.8099C118.705 40.4899 118.705 41.2699 118.705 42.1499C118.725 43.0299 118.735 43.9199 118.735 44.8199C118.735 45.7199 118.735 46.5499 118.735 47.3099C118.735 47.9499 118.725 48.6699 118.705 49.4699C118.705 50.2699 118.695 51.0999 118.675 51.9599C118.655 52.8199 118.635 53.6199 118.615 54.3599ZM130.067 54.9299C128.867 54.2699 127.887 53.3599 127.127 52.1999C126.387 51.0199 125.907 49.7699 125.687 48.4499C125.467 47.1299 125.417 45.7899 125.537 44.4299C125.657 43.0699 125.947 41.7899 126.407 40.5899C126.887 39.3099 127.537 38.1799 128.357 37.1999C129.177 36.1999 130.127 35.4499 131.207 34.9499C133.767 33.8699 136.427 34.3899 139.187 36.5099C139.587 36.8099 139.797 37.1599 139.817 37.5599C139.837 37.9599 139.727 38.3199 139.487 38.6399C139.247 38.9399 138.927 39.1399 138.527 39.2399C138.147 39.3399 137.767 39.2399 137.387 38.9399C135.527 37.5199 133.867 37.1199 132.407 37.7399C131.027 38.3599 129.957 39.6699 129.197 41.6699C128.837 42.6099 128.607 43.5899 128.507 44.6099C129.767 43.4699 131.047 42.7399 132.347 42.4199C132.867 42.2999 133.447 42.2799 134.087 42.3599C134.747 42.4199 135.387 42.5499 136.007 42.7499C136.647 42.9499 137.187 43.1899 137.627 43.4699C138.907 44.2099 139.827 45.1399 140.387 46.2599C140.927 47.3799 141.127 48.4999 140.987 49.6199C140.867 50.7399 140.477 51.7799 139.817 52.7399C139.157 53.6999 138.327 54.4599 137.327 55.0199C136.327 55.5999 135.197 55.9099 133.937 55.9499C132.677 56.0099 131.387 55.6699 130.067 54.9299ZM133.847 52.8899C134.607 52.8699 135.277 52.6999 135.857 52.3799C136.457 52.0399 136.957 51.5899 137.357 51.0299C137.917 50.1499 138.117 49.2599 137.957 48.3599C137.797 47.4599 137.187 46.6999 136.127 46.0799C135.867 45.9399 135.537 45.8099 135.137 45.6899C134.737 45.5499 134.347 45.4499 133.967 45.3899C133.587 45.3299 133.287 45.3299 133.067 45.3899C132.547 45.5099 132.087 45.6999 131.687 45.9599C131.307 46.1999 130.927 46.4899 130.547 46.8299L128.807 48.5699C129.287 50.3299 130.187 51.5599 131.507 52.2599C132.327 52.6999 133.107 52.9099 133.847 52.8899Z" fill="black"/>
<path d="M54.7251 212.298C51.7651 212.098 49.2251 212.018 47.1051 212.058C47.0451 212.058 46.8851 212.068 46.6251 212.088C46.3851 212.088 46.1251 212.098 45.8451 212.118C45.5651 212.118 45.3351 212.118 45.1551 212.118C44.6351 212.138 44.2251 212.148 43.9251 212.148C43.7251 212.168 43.5751 212.168 43.4751 212.148H43.2651C43.1051 212.148 42.9351 212.118 42.7551 212.058C42.2551 211.858 41.7651 211.558 41.2851 211.158C40.8251 210.738 40.5451 210.208 40.4451 209.568C40.3251 208.888 40.4951 208.168 40.9551 207.408C41.2351 206.928 41.6751 206.378 42.2751 205.758C42.7551 205.278 43.9751 204.188 45.9351 202.488C47.5951 201.048 48.7851 199.928 49.5051 199.128C50.3851 198.108 50.8351 197.328 50.8551 196.788C50.8751 195.808 50.6451 195.088 50.1651 194.628C49.7051 194.148 49.0851 193.888 48.3051 193.848C47.4651 193.828 46.6551 194.058 45.8751 194.538C45.1151 194.998 44.5651 195.638 44.2251 196.458C44.2051 196.538 44.1851 196.678 44.1651 196.878C44.1251 197.498 44.1051 197.818 44.1051 197.838C44.0251 198.318 43.8151 198.668 43.4751 198.888C43.1551 199.088 42.8051 199.168 42.4251 199.128C42.0451 199.068 41.7151 198.898 41.4351 198.618C41.1751 198.318 41.0651 197.918 41.1051 197.418C41.1251 197.318 41.1351 197.188 41.1351 197.028C41.1551 196.848 41.1751 196.718 41.1951 196.638C41.2351 196.138 41.3251 195.718 41.4651 195.378C41.8451 194.398 42.3951 193.568 43.1151 192.888C43.8551 192.208 44.6851 191.698 45.6051 191.358C46.5251 190.998 47.4551 190.828 48.3951 190.848C49.4351 190.888 50.3651 191.158 51.1851 191.658C52.0251 192.138 52.6851 192.818 53.1651 193.698C53.6451 194.578 53.8751 195.628 53.8551 196.848C53.8151 198.128 53.1151 199.548 51.7551 201.108C50.9951 201.968 49.7151 203.178 47.9151 204.738C46.0551 206.338 44.8851 207.378 44.4051 207.858C43.9851 208.298 43.6851 208.668 43.5051 208.968C43.4851 208.988 43.4751 209.018 43.4751 209.058C43.5151 209.098 43.5751 209.128 43.6551 209.148H43.8651C44.1451 209.148 44.5451 209.138 45.0651 209.118C45.2451 209.118 45.4751 209.118 45.7551 209.118C46.0551 209.098 46.3251 209.088 46.5651 209.088C46.8251 209.068 46.9851 209.058 47.0451 209.058C49.2651 209.018 51.8851 209.098 54.9051 209.298C55.4051 209.318 55.7651 209.488 55.9851 209.808C56.2251 210.128 56.3251 210.488 56.2851 210.888C56.2651 211.268 56.1151 211.608 55.8351 211.908C55.5751 212.188 55.2051 212.318 54.7251 212.298Z" fill="black"/>
<path d="M50.3375 290.545C49.9175 290.545 49.5575 290.415 49.2575 290.155C48.9575 289.895 48.8075 289.525 48.8075 289.045C48.8075 287.925 48.8275 286.465 48.8675 284.665L46.6175 284.695C45.1575 284.695 43.8075 284.715 42.5675 284.755C41.7275 284.795 41.0375 284.645 40.4975 284.305C39.9575 283.945 39.6875 283.405 39.6875 282.685C39.6875 282.325 39.7875 281.965 39.9875 281.605C40.1875 281.245 40.5375 280.815 41.0375 280.315C41.2575 280.095 41.5875 279.695 42.0275 279.115C42.4875 278.515 42.9875 277.825 43.5275 277.045C44.0875 276.245 44.6475 275.425 45.2075 274.585C45.7875 273.725 46.3075 272.925 46.7675 272.185C47.2475 271.425 47.6175 270.795 47.8775 270.295C48.1575 269.755 48.4575 269.375 48.7775 269.155C49.0975 268.915 49.4775 268.795 49.9175 268.795C50.3775 268.795 50.7775 268.965 51.1175 269.305C51.4575 269.645 51.6475 270.195 51.6875 270.955C51.9675 275.455 52.0575 279.025 51.9575 281.665C53.3775 281.665 54.3775 281.675 54.9575 281.695C55.4175 281.695 55.7775 281.835 56.0375 282.115C56.2975 282.395 56.4275 282.735 56.4275 283.135C56.4275 283.555 56.2875 283.925 56.0075 284.245C55.7475 284.545 55.3775 284.695 54.8975 284.695C54.2975 284.675 53.2975 284.665 51.8975 284.665C51.8375 286.065 51.8075 287.545 51.8075 289.105C51.8075 289.565 51.6575 289.925 51.3575 290.185C51.0775 290.425 50.7375 290.545 50.3375 290.545ZM43.7975 281.725L48.9575 281.665C48.9775 281.145 48.9875 280.535 48.9875 279.835C48.9875 279.135 48.9875 278.425 48.9875 277.705C48.9875 276.985 48.9775 276.325 48.9575 275.725C48.9375 275.105 48.9075 274.615 48.8675 274.255C47.4475 276.675 45.7575 279.165 43.7975 281.725Z" fill="black"/>
<path d="M128.496 212.388C128.076 212.388 127.716 212.258 127.416 211.998C127.116 211.738 126.966 211.368 126.966 210.888C126.966 209.768 126.986 208.308 127.026 206.508L124.776 206.538C123.316 206.538 121.966 206.558 120.726 206.598C119.886 206.638 119.196 206.488 118.656 206.148C118.116 205.788 117.846 205.248 117.846 204.528C117.846 204.168 117.946 203.808 118.146 203.448C118.346 203.088 118.696 202.658 119.196 202.158C119.416 201.938 119.746 201.538 120.186 200.958C120.646 200.358 121.146 199.668 121.686 198.888C122.246 198.088 122.806 197.268 123.366 196.428C123.946 195.568 124.466 194.768 124.926 194.028C125.406 193.268 125.776 192.638 126.036 192.138C126.316 191.598 126.616 191.218 126.936 190.998C127.256 190.758 127.636 190.638 128.076 190.638C128.536 190.638 128.936 190.808 129.276 191.148C129.616 191.488 129.806 192.038 129.846 192.798C130.126 197.298 130.216 200.868 130.116 203.508C131.536 203.508 132.536 203.518 133.116 203.538C133.576 203.538 133.936 203.678 134.196 203.958C134.456 204.238 134.586 204.578 134.586 204.978C134.586 205.398 134.446 205.768 134.166 206.088C133.906 206.388 133.536 206.538 133.056 206.538C132.456 206.518 131.456 206.508 130.056 206.508C129.996 207.908 129.966 209.388 129.966 210.948C129.966 211.408 129.816 211.768 129.516 212.028C129.236 212.268 128.896 212.388 128.496 212.388ZM121.956 203.568L127.116 203.508C127.136 202.988 127.146 202.378 127.146 201.678C127.146 200.978 127.146 200.268 127.146 199.548C127.146 198.828 127.136 198.168 127.116 197.568C127.096 196.948 127.066 196.458 127.026 196.098C125.606 198.518 123.916 201.008 121.956 203.568Z" fill="black"/>
<path d="M202.894 290.395C201.534 290.195 200.354 289.715 199.354 288.955C198.354 288.175 197.674 287.225 197.314 286.105C196.934 284.925 196.954 283.745 197.374 282.565C197.814 281.385 198.624 280.355 199.804 279.475C199.964 279.355 200.144 279.235 200.344 279.115C200.104 279.035 199.894 278.955 199.714 278.875C198.474 278.275 197.614 277.525 197.134 276.625C196.394 275.265 196.614 273.685 197.794 271.885C199.194 269.745 201.434 268.765 204.514 268.945C204.634 268.925 204.744 268.915 204.844 268.915C204.924 268.915 205.044 268.905 205.204 268.885L205.744 268.855C206.344 268.795 206.874 268.835 207.334 268.975C208.254 269.295 209.014 269.825 209.614 270.565C210.214 271.305 210.634 272.145 210.874 273.085C211.094 273.905 211.124 274.805 210.964 275.785C210.804 276.765 210.434 277.605 209.854 278.305C209.494 278.765 209.044 279.165 208.504 279.505C209.224 280.085 209.814 280.735 210.274 281.455C211.154 282.895 211.534 284.245 211.414 285.505C211.314 286.745 210.774 287.815 209.794 288.715C208.954 289.455 207.904 289.975 206.644 290.275C205.404 290.555 204.154 290.595 202.894 290.395ZM203.314 287.455C204.234 287.575 205.094 287.545 205.894 287.365C206.694 287.165 207.324 286.865 207.784 286.465C208.684 285.665 208.674 284.535 207.754 283.075C207.194 282.175 206.214 281.415 204.814 280.795C204.274 280.915 203.684 281.065 203.044 281.245C202.424 281.425 201.944 281.635 201.604 281.875C200.904 282.395 200.444 282.945 200.224 283.525C200.024 284.105 200.004 284.655 200.164 285.175C200.344 285.715 200.704 286.195 201.244 286.615C201.784 287.035 202.474 287.315 203.314 287.455ZM205.084 277.645C206.304 277.345 207.114 276.945 207.514 276.445C208.054 275.765 208.194 274.885 207.934 273.805C207.794 273.185 207.534 272.695 207.154 272.335C207.034 272.335 206.914 272.325 206.794 272.305C205.694 272.085 204.774 271.955 204.034 271.915C203.274 271.895 202.554 272.005 201.874 272.245C201.214 272.485 200.694 272.905 200.314 273.505C199.774 274.325 199.594 274.905 199.774 275.245C199.934 275.545 200.344 275.845 201.004 276.145C201.364 276.325 202.304 276.675 203.824 277.195C204.324 277.355 204.744 277.505 205.084 277.645Z" fill="black"/>
</svg>
