<svg width="390" height="289" viewBox="0 0 390 289" fill="none" xmlns="http://www.w3.org/2000/svg">
<rect y="174" width="115" height="115" rx="20" fill="#FF0000"/>
<rect x="275" y="174" width="115" height="115" rx="20" fill="#008000"/>
<rect x="45" width="300" height="79" rx="20" fill="#0000FF"/>
<path d="M32.6298 241.695C32.5331 239.762 32.4268 236.804 32.3108 232.821C32.2721 232.686 32.2528 232.541 32.2528 232.386C32.2528 232.27 32.2721 232.154 32.3108 232.038C32.2141 228.635 32.0981 225.89 31.9628 223.802C31.9434 223.319 32.0691 222.951 32.3398 222.7C32.6298 222.449 32.9584 222.313 33.3258 222.294C33.7124 222.255 34.0604 222.352 34.3698 222.584C34.6791 222.797 34.8434 223.145 34.8628 223.628C34.9788 225.581 35.0754 228.017 35.1528 230.936C36.3128 230.936 38.0528 230.946 40.3728 230.965C42.6928 231.004 44.4424 231.023 45.6218 231.023C45.6991 228.684 45.8248 226.199 45.9988 223.57C46.0374 223.106 46.2114 222.768 46.5208 222.555C46.8301 222.342 47.1684 222.246 47.5358 222.265C47.9224 222.284 48.2511 222.429 48.5218 222.7C48.7924 222.951 48.9181 223.319 48.8988 223.802C48.6861 226.837 48.5411 229.708 48.4638 232.415V232.618C48.3671 235.692 48.3478 238.689 48.4058 241.608C48.4058 242.072 48.2608 242.43 47.9708 242.681C47.6808 242.932 47.3424 243.058 46.9558 243.058C46.5691 243.077 46.2308 242.971 45.9408 242.739C45.6508 242.507 45.5058 242.149 45.5058 241.666C45.4478 239.211 45.4574 236.63 45.5348 233.923C44.3748 233.923 42.6541 233.904 40.3728 233.865C38.0914 233.846 36.3804 233.836 35.2398 233.836C35.3171 236.601 35.4138 239.162 35.5298 241.521C35.5491 242.004 35.4138 242.372 35.1238 242.623C34.8531 242.874 34.5244 243.01 34.1378 243.029C33.7704 243.048 33.4321 242.952 33.1228 242.739C32.8134 242.507 32.6491 242.159 32.6298 241.695ZM67.6382 240.709C66.8069 241.579 65.8402 242.207 64.7382 242.594C63.6555 242.981 62.5535 243.126 61.4322 243.029C60.3109 242.952 59.2862 242.613 58.3582 242.014C57.3915 241.434 56.5892 240.699 55.9512 239.81C55.3325 238.901 54.9459 237.886 54.7912 236.765C54.6559 235.624 54.8299 234.406 55.3132 233.111C55.7772 231.816 56.4249 230.733 57.2562 229.863C58.1069 228.993 59.0639 228.355 60.1272 227.949C61.1905 227.543 62.2732 227.408 63.3752 227.543C64.5159 227.678 65.5309 228.084 66.4202 228.761C67.3289 229.438 68.0442 230.327 68.5662 231.429C69.0882 232.531 69.3492 233.807 69.3492 235.257C69.3492 235.798 69.1172 236.214 68.6532 236.504C68.3632 236.717 68.0345 236.804 67.6672 236.765C65.2699 236.514 62.0122 236.494 57.8942 236.707H57.8362C58.0102 237.558 58.3775 238.273 58.9382 238.853C59.4989 239.414 60.1659 239.8 60.9392 240.013C61.7319 240.226 62.5342 240.235 63.3462 240.042C64.1582 239.829 64.8929 239.375 65.5502 238.679C65.8789 238.35 66.2269 238.205 66.5942 238.244C66.9809 238.263 67.3095 238.408 67.5802 238.679C67.8509 238.93 68.0055 239.249 68.0442 239.636C68.1022 240.003 67.9669 240.361 67.6382 240.709ZM58.1552 233.778C61.4612 233.623 64.1775 233.614 66.3042 233.749C66.0915 232.744 65.6759 231.961 65.0572 231.4C64.4579 230.839 63.7812 230.52 63.0272 230.443C62.0992 230.327 61.1809 230.549 60.2722 231.11C59.3635 231.671 58.6579 232.56 58.1552 233.778ZM80.9098 241.608C80.9098 242.091 80.7648 242.449 80.4748 242.681C80.1848 242.913 79.8464 243.019 79.4598 243C79.0731 243 78.7348 242.874 78.4448 242.623C78.1548 242.372 78.0098 242.014 78.0098 241.55C78.1064 236.523 78.1064 232.879 78.0098 230.617C77.7004 230.617 77.1591 230.607 76.3858 230.588C75.5931 230.569 74.9841 230.559 74.5588 230.559C74.0754 230.559 73.7178 230.414 73.4858 230.124C73.2538 229.834 73.1378 229.496 73.1378 229.109C73.1571 228.722 73.2924 228.384 73.5438 228.094C73.7951 227.804 74.1528 227.659 74.6168 227.659C79.7594 227.756 83.0654 227.775 84.5348 227.717C85.0181 227.698 85.3854 227.833 85.6368 228.123C85.8881 228.394 86.0138 228.722 86.0138 229.109C86.0331 229.476 85.9268 229.815 85.6948 230.124C85.4821 230.433 85.1341 230.598 84.6508 230.617C83.5294 230.656 82.2824 230.675 80.9098 230.675C81.0064 232.976 81.0064 236.62 80.9098 241.608Z" fill="white"/>
<path d="M329.783 244.422C329.706 242.856 329.687 241.754 329.725 241.116C329.571 241.116 324.96 241.126 315.892 241.145V241.406C316.066 242.721 316.182 243.552 316.24 243.9C316.298 244.267 316.221 244.596 316.008 244.886C315.776 245.215 315.486 245.398 315.138 245.437C314.79 245.476 314.462 245.398 314.152 245.205C313.862 245.012 313.688 244.731 313.63 244.364L313.195 240.42C313.099 240.246 313.05 240.062 313.05 239.869C313.05 239.502 313.176 239.192 313.427 238.941C313.679 238.67 313.988 238.525 314.355 238.506H314.674C315.912 236.167 316.762 233.557 317.226 230.676C317.69 227.795 317.748 224.895 317.4 221.976C317.323 221.783 317.284 221.58 317.284 221.367C317.304 221 317.449 220.7 317.719 220.468C317.99 220.217 318.309 220.091 318.676 220.091C318.908 220.11 320.552 220.12 323.606 220.12C324.94 220.12 325.936 220.13 326.593 220.149H327.579C327.715 220.168 327.821 220.178 327.898 220.178C327.956 220.178 328.005 220.178 328.043 220.178C328.082 220.197 328.121 220.207 328.159 220.207C328.333 220.226 328.498 220.294 328.652 220.41C329.542 220.99 329.986 222.044 329.986 223.571C329.986 223.958 329.957 224.412 329.899 224.934C329.861 225.437 329.841 225.707 329.841 225.746C329.783 227.505 329.861 229.787 330.073 232.59L330.305 235.374L330.537 238.419L330.972 238.39C331.301 238.39 331.591 238.496 331.842 238.709C332.113 238.902 332.277 239.154 332.335 239.463C332.393 239.637 332.422 239.811 332.422 239.985C332.364 241.493 332.374 242.972 332.451 244.422C332.451 244.867 332.316 245.195 332.045 245.408C331.775 245.64 331.465 245.756 331.117 245.756C330.769 245.756 330.46 245.64 330.189 245.408C329.919 245.195 329.783 244.867 329.783 244.422ZM327.898 238.506L327.637 235.548C327.541 234.272 327.463 233.354 327.405 232.793C327.193 229.97 327.115 227.602 327.173 225.688C327.173 225.591 327.202 225.253 327.26 224.673C327.318 224.248 327.338 223.89 327.318 223.6C327.318 223.271 327.299 223.01 327.26 222.817C327.067 222.817 326.835 222.807 326.564 222.788H323.606C321.557 222.769 320.407 222.759 320.155 222.759C320.639 228.462 319.798 233.692 317.632 238.448C323.471 238.525 326.893 238.545 327.898 238.506ZM343.037 240.942C342.07 241.077 341.142 240.942 340.253 240.536C339.383 240.111 338.619 239.415 337.962 238.448C337.44 237.675 337.121 236.969 337.005 236.331C336.889 235.674 336.85 234.871 336.889 233.924C336.966 231.971 337.44 230.299 338.31 228.907C339.199 227.496 340.369 226.529 341.819 226.007C343.249 225.466 344.757 225.437 346.343 225.92C347.909 226.403 349.349 227.341 350.664 228.733C350.954 229.042 351.089 229.4 351.07 229.806C351.05 230.212 350.896 230.56 350.606 230.85C350.451 231.005 350.258 231.121 350.026 231.198C350.045 231.372 350.055 231.585 350.055 231.836C350.055 231.991 350.055 232.136 350.055 232.271C350.035 232.426 350.026 232.513 350.026 232.532V232.793C350.045 233.083 350.074 233.412 350.113 233.779C350.132 234.166 350.151 234.446 350.171 234.62C350.171 234.852 350.2 235.132 350.258 235.461C350.316 235.77 350.364 235.993 350.403 236.128C350.577 236.708 351.195 237.52 352.259 238.564C352.587 238.931 352.723 239.308 352.665 239.695C352.626 240.082 352.462 240.41 352.172 240.681C351.901 240.952 351.572 241.097 351.186 241.116C350.818 241.155 350.451 241.01 350.084 240.681C348.904 239.463 348.131 238.419 347.764 237.549C347.686 237.704 347.599 237.839 347.503 237.955C346.961 238.748 346.304 239.415 345.531 239.956C344.757 240.497 343.926 240.826 343.037 240.942ZM342.631 237.984C343.539 237.868 344.342 237.298 345.038 236.273C345.734 235.229 346.275 233.789 346.662 231.952V231.836C346.662 231.759 346.671 231.652 346.691 231.517C346.691 231.382 346.691 231.246 346.691 231.111C346.71 230.744 346.749 230.463 346.807 230.27C346.865 230.077 346.961 229.893 347.097 229.719C347.116 229.68 347.135 229.651 347.155 229.632C345.647 228.588 344.206 228.317 342.834 228.82C342.041 229.11 341.364 229.7 340.804 230.589C340.243 231.459 339.934 232.609 339.876 234.04C339.856 234.523 339.856 234.92 339.876 235.229C339.895 235.519 339.943 235.78 340.021 236.012C340.117 236.244 340.272 236.505 340.485 236.795C341.084 237.704 341.799 238.1 342.631 237.984Z" fill="white"/>
<path d="M142.221 48.536C140.345 46.6607 138.924 45.056 137.958 43.722L136.595 41.634C135.957 40.6867 135.454 39.981 135.087 39.517C133.946 40.5417 132.815 41.489 131.694 42.359C131.771 44.1377 131.868 45.8583 131.984 47.521C132.003 48.0043 131.877 48.3813 131.607 48.652C131.336 48.9033 131.007 49.0387 130.621 49.058C130.253 49.0773 129.915 48.9807 129.606 48.768C129.296 48.5553 129.122 48.217 129.084 47.753C128.968 46.0903 128.881 44.3697 128.823 42.591C128.513 42.1077 128.494 41.6147 128.765 41.112C128.707 38.908 128.678 35.051 128.678 29.541C128.678 29.0577 128.823 28.7 129.113 28.468C129.403 28.2167 129.741 28.091 130.128 28.091C130.514 28.091 130.853 28.2167 131.143 28.468C131.433 28.7 131.578 29.0577 131.578 29.541C131.578 34.0843 131.587 37.1293 131.607 38.676C132.67 37.7867 133.811 36.7427 135.029 35.544L137.871 32.644L141.148 29.164C141.476 28.8353 141.834 28.6807 142.221 28.7C142.607 28.7193 142.936 28.8643 143.207 29.135C143.497 29.3863 143.661 29.6957 143.7 30.063C143.758 30.4303 143.622 30.788 143.294 31.136C140.49 34.1327 138.451 36.2593 137.175 37.516C137.658 38.096 138.277 38.9467 139.031 40.068C139.765 41.2087 140.2 41.866 140.336 42.04C141.186 43.2387 142.491 44.7273 144.251 46.506C144.599 46.8347 144.753 47.1923 144.715 47.579C144.676 47.9463 144.521 48.2653 144.251 48.536C143.98 48.8067 143.651 48.9613 143.265 49C142.897 49.0387 142.549 48.884 142.221 48.536ZM150.037 53.437C149.96 52.1223 149.902 50.798 149.863 49.464C149.844 48.478 149.825 47.4437 149.805 46.361C149.786 45.2783 149.767 44.244 149.747 43.258C149.747 42.272 149.738 41.431 149.718 40.735C149.428 40.5223 149.245 40.2323 149.167 39.865C149.09 39.4783 149.148 39.1303 149.341 38.821L149.66 38.328C149.622 37.4193 149.583 36.559 149.544 35.747C149.525 35.341 149.651 34.993 149.921 34.703C150.192 34.3937 150.521 34.2293 150.907 34.21C151.255 34.1907 151.565 34.2873 151.835 34.5C152.125 34.7127 152.319 34.9833 152.415 35.312C152.609 35.1573 152.812 35.0123 153.024 34.877C154.223 34.065 155.402 33.6397 156.562 33.601C157.742 33.543 158.786 33.833 159.694 34.471C160.526 35.0317 161.212 35.7857 161.753 36.733C162.295 37.661 162.672 38.6857 162.884 39.807C163.368 42.2237 163.116 44.3213 162.13 46.1C161.55 47.144 160.758 47.9463 159.752 48.507C158.766 49.0677 157.597 49.2997 156.243 49.203C155.721 49.1643 155.286 49.1063 154.938 49.029C154.59 48.971 154.252 48.8743 153.923 48.739C153.614 48.6037 153.237 48.4103 152.792 48.159L152.734 48.13C152.773 50.0247 152.841 51.7357 152.937 53.263C152.957 53.7463 152.821 54.1137 152.531 54.365C152.261 54.6163 151.932 54.7517 151.545 54.771C151.178 54.8097 150.84 54.713 150.53 54.481C150.221 54.2683 150.057 53.9203 150.037 53.437ZM156.417 46.303C157.887 46.3997 158.94 45.868 159.578 44.708C160.216 43.5287 160.371 42.0883 160.042 40.387C159.888 39.5943 159.627 38.8887 159.259 38.27C158.911 37.6513 158.515 37.1873 158.07 36.878C157.123 36.24 155.982 36.3657 154.648 37.255C153.856 37.7963 153.169 38.4537 152.589 39.227L152.676 44.215C153.063 44.737 153.266 45.0077 153.285 45.027C153.382 45.143 153.701 45.3557 154.242 45.665C154.552 45.839 154.793 45.9647 154.967 46.042C155.161 46.1193 155.354 46.1773 155.547 46.216C155.76 46.2547 156.05 46.2837 156.417 46.303ZM173.627 48.942C172.661 49.0773 171.733 48.942 170.843 48.536C169.973 48.1107 169.21 47.4147 168.552 46.448C168.03 45.6747 167.711 44.969 167.595 44.331C167.479 43.6737 167.441 42.8713 167.479 41.924C167.557 39.9713 168.03 38.299 168.9 36.907C169.79 35.4957 170.959 34.529 172.409 34.007C173.84 33.4657 175.348 33.4367 176.933 33.92C178.499 34.4033 179.94 35.341 181.254 36.733C181.544 37.0423 181.68 37.4 181.66 37.806C181.641 38.212 181.486 38.56 181.196 38.85C181.042 39.0047 180.848 39.1207 180.616 39.198C180.636 39.372 180.645 39.5847 180.645 39.836C180.645 39.9907 180.645 40.1357 180.645 40.271C180.626 40.4257 180.616 40.5127 180.616 40.532V40.793C180.636 41.083 180.665 41.4117 180.703 41.779C180.723 42.1657 180.742 42.446 180.761 42.62C180.761 42.852 180.79 43.1323 180.848 43.461C180.906 43.7703 180.955 43.9927 180.993 44.128C181.167 44.708 181.786 45.52 182.849 46.564C183.178 46.9313 183.313 47.3083 183.255 47.695C183.217 48.0817 183.052 48.4103 182.762 48.681C182.492 48.9517 182.163 49.0967 181.776 49.116C181.409 49.1547 181.042 49.0097 180.674 48.681C179.495 47.463 178.722 46.419 178.354 45.549C178.277 45.7037 178.19 45.839 178.093 45.955C177.552 46.7477 176.895 47.4147 176.121 47.956C175.348 48.4973 174.517 48.826 173.627 48.942ZM173.221 45.984C174.13 45.868 174.932 45.2977 175.628 44.273C176.324 43.229 176.866 41.7887 177.252 39.952V39.836C177.252 39.7587 177.262 39.6523 177.281 39.517C177.281 39.3817 177.281 39.2463 177.281 39.111C177.301 38.7437 177.339 38.4633 177.397 38.27C177.455 38.0767 177.552 37.893 177.687 37.719C177.707 37.6803 177.726 37.6513 177.745 37.632C176.237 36.588 174.797 36.3173 173.424 36.82C172.632 37.11 171.955 37.6997 171.394 38.589C170.834 39.459 170.524 40.6093 170.466 42.04C170.447 42.5233 170.447 42.9197 170.466 43.229C170.486 43.519 170.534 43.78 170.611 44.012C170.708 44.244 170.863 44.505 171.075 44.795C171.675 45.7037 172.39 46.1 173.221 45.984ZM194.009 49C192.636 48.9807 191.457 48.6713 190.471 48.072C189.485 47.4727 188.721 46.6703 188.18 45.665C187.252 43.8477 187.097 41.779 187.716 39.459C188.006 38.415 188.441 37.4483 189.021 36.559C189.62 35.6697 190.345 34.9737 191.196 34.471C192.105 33.8717 193.129 33.601 194.27 33.659C195.43 33.717 196.58 34.1133 197.721 34.848C198.011 35.0607 198.262 35.2637 198.475 35.457C198.707 35.6503 198.91 35.863 199.084 36.095C199.161 36.2303 199.268 36.414 199.403 36.646C199.538 36.8587 199.664 37.0617 199.78 37.255C199.915 37.4483 199.993 37.574 200.012 37.632C200.225 38.0573 200.244 38.444 200.07 38.792C199.915 39.14 199.664 39.401 199.316 39.575C198.987 39.7297 198.639 39.7683 198.272 39.691C197.905 39.5943 197.615 39.3333 197.402 38.908C197.305 38.7147 197.209 38.5407 197.112 38.386C196.996 38.2313 196.919 38.1153 196.88 38.038C196.783 37.8833 196.677 37.748 196.561 37.632C196.464 37.516 196.31 37.4 196.097 37.284C194.84 36.4527 193.709 36.3367 192.704 36.936C191.679 37.574 190.954 38.6663 190.529 40.213C190.104 41.8177 190.181 43.1903 190.761 44.331C191.36 45.4717 192.462 46.0613 194.067 46.1C194.647 46.1193 195.111 46.0227 195.459 45.81C195.826 45.6167 196.348 45.2203 197.025 44.621C197.334 44.2537 197.682 44.07 198.069 44.07C198.456 44.07 198.794 44.1957 199.084 44.447C199.374 44.6983 199.558 45.0077 199.635 45.375C199.712 45.7423 199.596 46.1097 199.287 46.477C198.688 47.0377 198.127 47.5113 197.605 47.898C197.083 48.2653 196.542 48.5457 195.981 48.739C195.42 48.9323 194.763 49.0193 194.009 49ZM205.934 47.695C205.838 46.4577 205.76 45.3073 205.702 44.244C205.644 43.1227 205.615 42.156 205.615 41.344C205.596 40.706 205.586 40.01 205.586 39.256C205.586 38.502 205.577 37.7577 205.557 37.023C205.557 36.2883 205.548 35.6407 205.528 35.08C205.528 34.616 205.673 34.2583 205.963 34.007C206.253 33.7557 206.592 33.63 206.978 33.63C207.365 33.6107 207.703 33.717 207.993 33.949C208.283 34.181 208.428 34.5387 208.428 35.022L208.486 39.633C210.439 39.5557 212.604 39.517 214.982 39.517C214.963 38.4343 214.905 36.965 214.808 35.109C214.789 34.6257 214.915 34.2583 215.185 34.007C215.475 33.7557 215.804 33.6203 216.171 33.601C216.558 33.5817 216.906 33.688 217.215 33.92C217.525 34.1327 217.689 34.471 217.708 34.935C217.902 38.7243 217.998 42.9293 217.998 47.55C217.998 48.0333 217.853 48.4007 217.563 48.652C217.273 48.884 216.935 49 216.548 49C216.162 49 215.823 48.884 215.533 48.652C215.243 48.4007 215.098 48.0333 215.098 47.55C215.098 45.636 215.089 43.925 215.069 42.417C212.653 42.417 210.478 42.4557 208.544 42.533C208.583 44.1957 208.68 45.8197 208.834 47.405C208.873 47.869 208.757 48.2363 208.486 48.507C208.235 48.7777 207.916 48.942 207.529 49C207.143 49.0387 206.785 48.9517 206.456 48.739C206.147 48.5263 205.973 48.1783 205.934 47.695ZM226.681 48.913C226.275 48.9323 225.917 48.8163 225.608 48.565C225.318 48.2943 225.163 47.956 225.144 47.55C225.105 46.7767 225.018 45.5007 224.883 43.722C224.748 41.9627 224.641 40.3773 224.564 38.966C224.506 37.5353 224.477 36.211 224.477 34.993C224.477 34.5097 224.622 34.152 224.912 33.92C225.202 33.6687 225.54 33.543 225.927 33.543C226.314 33.543 226.652 33.6687 226.942 33.92C227.232 34.152 227.377 34.5097 227.377 34.993C227.377 36.211 227.416 37.6707 227.493 39.372C230.006 38.792 232.065 38.7147 233.67 39.14C234.559 39.3527 235.323 39.7877 235.961 40.445C236.618 41.083 237.082 41.808 237.353 42.62C237.643 43.432 237.653 44.3117 237.382 45.259C237.131 46.187 236.589 46.9603 235.758 47.579C233.825 49.0097 230.934 49.4253 227.087 48.826C226.952 48.8647 226.816 48.8937 226.681 48.913ZM227.957 46.013C230.78 46.3997 232.8 46.1483 234.018 45.259C234.617 44.8143 234.801 44.2247 234.569 43.49C234.453 43.1227 234.25 42.794 233.96 42.504C233.67 42.214 233.341 42.0207 232.974 41.924C231.737 41.6147 229.977 41.75 227.696 42.33C227.715 42.562 227.754 43.113 227.812 43.983C227.87 44.8723 227.918 45.549 227.957 46.013ZM238.745 47.724C238.745 44.94 238.793 40.7157 238.89 35.051C238.89 34.5677 239.035 34.21 239.325 33.978C239.615 33.746 239.953 33.6397 240.34 33.659C240.727 33.659 241.065 33.7847 241.355 34.036C241.645 34.2873 241.79 34.645 241.79 35.109C241.693 40.7543 241.645 44.9593 241.645 47.724C241.645 48.2073 241.5 48.5747 241.21 48.826C240.92 49.058 240.582 49.174 240.195 49.174C239.808 49.174 239.47 49.058 239.18 48.826C238.89 48.5747 238.745 48.2073 238.745 47.724ZM250.454 49C250.048 49.0193 249.69 48.9033 249.381 48.652C249.091 48.3813 248.936 48.043 248.917 47.637C248.878 46.883 248.801 45.5297 248.685 43.577C248.588 42.2817 248.511 41.141 248.453 40.155C248.395 39.169 248.346 38.27 248.308 37.458C248.288 36.6267 248.269 35.8147 248.25 35.022C248.25 34.558 248.395 34.2003 248.685 33.949C248.975 33.6977 249.313 33.572 249.7 33.572C250.086 33.5527 250.425 33.659 250.715 33.891C251.005 34.123 251.15 34.4807 251.15 34.964C251.188 36.82 251.324 39.7297 251.556 43.693L257.965 34.297L258.023 34.239C258.274 33.6783 258.709 33.398 259.328 33.398C259.714 33.398 260.053 33.543 260.343 33.833C260.633 34.1037 260.778 34.442 260.778 34.848C260.778 35.486 260.787 36.3077 260.807 37.313C260.826 38.3183 260.836 39.3817 260.836 40.503C260.855 41.605 260.865 42.6683 260.865 43.693C260.884 44.7177 260.894 45.5877 260.894 46.303C260.913 47.0183 260.923 47.4533 260.923 47.608C260.923 48.072 260.778 48.4297 260.488 48.681C260.198 48.913 259.859 49.0193 259.473 49C259.086 49 258.748 48.884 258.458 48.652C258.168 48.4007 258.023 48.0333 258.023 47.55C258.042 46.6027 257.984 43.8573 257.849 39.314C255.007 43.6833 253.054 46.535 251.991 47.869C251.894 47.985 251.788 48.0817 251.672 48.159C251.44 48.681 251.034 48.9613 250.454 49ZM258.603 31.02C255.587 33.804 252.716 33.6687 249.99 30.614C249.661 30.266 249.526 29.9083 249.584 29.541C249.642 29.1737 249.816 28.8643 250.106 28.613C250.396 28.3423 250.724 28.1973 251.092 28.178C251.478 28.1587 251.826 28.3327 252.136 28.7C252.948 29.5893 253.673 30.0533 254.311 30.092C254.968 30.1113 255.741 29.7053 256.631 28.874C256.979 28.5453 257.336 28.41 257.704 28.468C258.09 28.526 258.409 28.7 258.661 28.99C258.931 29.2607 259.076 29.5893 259.096 29.976C259.115 30.3433 258.951 30.6913 258.603 31.02Z" fill="white"/>
</svg>
