<svg width="324" height="394" viewBox="0 0 324 394" fill="none" xmlns="http://www.w3.org/2000/svg">
<circle cx="45" cy="122" r="19.5" fill="#0000FF" stroke="black"/>
<circle cx="304" cy="128" r="19.5" fill="#008000" stroke="black"/>
<circle cx="180" cy="115" r="19.5" fill="#FF0000" stroke="black"/>
<circle cx="117" cy="242" r="19.5" fill="#008000" stroke="black"/>
<circle cx="238" cy="374" r="19.5" fill="#0000FF" stroke="black"/>
<circle cx="239" cy="210" r="19.5" fill="#FFBB00" stroke="black"/>
<circle cx="20" cy="354" r="19.5" fill="#FF0000" stroke="black"/>
<circle cx="108" cy="20" r="19.5" fill="#FFBB00" stroke="black"/>
<path d="M177.014 110.365C168.188 110.633 158.436 114.367 150.471 117.917C139.129 122.973 123.671 126.882 113.989 135.353C108.529 140.13 101.817 143.679 96.053 148.125C89.8608 152.902 85.1737 158.524 80.0052 164.339C71.2772 174.158 63.9969 184.1 56.5722 194.824C52.5579 200.623 50.7385 207.722 47.0768 213.537C44.4307 217.74 41.9086 222.888 41.0241 227.753C40.2648 231.929 37.8243 235.468 37.0261 239.858C36.5404 242.529 34.4907 244.834 34.1386 247.299C33.7912 249.731 33.5929 252.14 32.8614 254.518C28.747 267.889 25.7559 280.692 24.31 294.609C22.1773 315.137 16.0918 334.382 16.0918 355.246" stroke="#FF0000" stroke-width="5" stroke-linecap="round"/>
<path d="M239.259 207.148C243.051 189.101 243.872 172.149 243.872 153.849C243.872 143.111 242.232 131.147 237.927 121.306C236.247 117.468 236.197 112.734 234.134 108.904C232.216 105.341 230.187 101.881 228.394 98.2953C225.488 92.4817 220.654 88.6055 217.581 83.0743C214.68 77.8536 205.56 73.0644 200.976 69.1858C191.664 61.3063 181.604 54.66 171.2 48.2762C160.952 41.9877 150.394 36.7298 139.17 32.3377C132.864 29.8702 126.788 26.586 120.361 24.0866C117.858 23.113 115.525 20.8066 112.879 20.8066" stroke="#FFBB00" stroke-width="5" stroke-linecap="round"/>
<path d="M304.756 127C303.673 127.32 303.277 132.015 303.201 133.229C302.69 141.396 300.002 150.3 298.321 158.248C296.22 168.187 293.283 177.931 290.418 187.606C287.029 199.058 284.775 211.281 277.204 220.233C270.536 228.116 265.578 236.445 256.562 241.014C248.105 245.299 239.791 250.876 230.564 252.859C207.17 257.888 182.196 255.568 158.618 254.748C150.085 254.452 140.046 253.35 132.189 249.438C126.473 246.593 118.973 244.639 112.756 244.639" stroke="#008000" stroke-width="5" stroke-linecap="round"/>
<path d="M49.2285 122.279C62.7829 112.896 78.1944 102.121 94.8915 99.2172C101.062 98.144 107.446 96.7998 113.341 95.066C119.583 93.2303 126.37 93.0307 132.662 91.6324C141.929 89.5731 151.536 90.1891 160.9 89.0187C169.005 88.0055 177.125 88.1474 185.346 88.1474C199.911 88.1474 212.508 101.643 212.508 115.822C212.508 119.819 212.508 123.817 212.508 127.814C212.508 131.828 210.176 135.56 208.818 139.294C206.067 146.86 197.939 153.521 191.291 157.795C187.759 160.066 184.126 164.318 180.17 165.636C175.588 167.163 170.352 170.096 166.384 172.811C160.595 176.772 152.915 178.162 146.602 181.318C140.489 184.375 134.646 187.04 128.562 190.082C116.688 196.019 105.774 203.44 96.2752 212.683C87.8507 220.879 77.8255 229.332 77.8255 242.253C77.8255 249.58 77.4596 257.023 77.8255 264.342C78.1332 270.495 82.7688 277.467 86.5378 282.074C91.1363 287.694 96.2059 292.966 101.81 297.551C115.409 308.677 130.675 318.966 146.551 326.609C153.458 329.935 159.709 334.393 166.486 337.782C175.691 342.384 185.356 346.762 194.263 351.773C203.685 357.072 214.186 359.713 223.065 366.225C226.15 368.487 233.947 369.949 235.57 373.195" stroke="#0000FF" stroke-width="5" stroke-linecap="round"/>
</svg>
