<svg width="215" height="215" viewBox="0 0 215 215" fill="none" xmlns="http://www.w3.org/2000/svg">
<rect width="50" height="50" rx="5" fill="#F5E674"/>
<rect y="110" width="50" height="50" rx="5" fill="#F5E674"/>
<rect y="55" width="50" height="50" rx="5" fill="#F5E674"/>
<rect y="165" width="50" height="50" rx="5" fill="#F5E674"/>
<rect x="110" width="50" height="50" rx="5" fill="#F5E674"/>
<rect x="110" y="110" width="50" height="50" rx="5" fill="#F5E674"/>
<rect x="110" y="55" width="50" height="50" rx="5" fill="#BFB35A"/>
<rect x="110" y="165" width="50" height="50" rx="5" fill="#F5E674"/>
<rect x="55" width="50" height="50" rx="5" fill="#F5E674"/>
<rect x="55" y="110" width="50" height="50" rx="5" fill="#F5E674"/>
<rect x="55" y="55" width="50" height="50" rx="5" fill="#F5E674"/>
<rect x="55" y="165" width="50" height="50" rx="5" fill="#F5E674"/>
<rect x="165" width="50" height="50" rx="5" fill="#F5E674"/>
<rect x="165" y="110" width="50" height="50" rx="5" fill="#F5E674"/>
<rect x="165" y="55" width="50" height="50" rx="5" fill="#F5E674"/>
<rect x="165" y="165" width="50" height="50" rx="5" fill="#F5E674"/>
<circle cx="135" cy="80" r="34" stroke="#FF0000" stroke-width="2"/>
</svg>
