<svg width="350" height="398" viewBox="0 0 350 398" fill="none" xmlns="http://www.w3.org/2000/svg">
<rect x="30" y="123" width="93" height="65" rx="5" fill="#161618"/>
<rect y="80" width="80" height="30" rx="5" fill="#3F4E5C"/>
<rect width="80" height="30" rx="5" fill="#3F4E5C"/>
<rect y="40" width="80" height="30" rx="5" fill="#3F4E5C"/>
<rect x="90" y="80" width="80" height="30" rx="5" fill="#3F4E5C"/>
<rect x="90" width="80" height="30" rx="5" fill="#3F4E5C"/>
<rect x="90" y="40" width="80" height="30" rx="5" fill="#3F4E5C"/>
<rect x="180" y="80" width="80" height="30" rx="5" fill="#3F4E5C"/>
<rect x="180" width="80" height="30" rx="5" fill="#3F4E5C"/>
<rect x="180" y="40" width="80" height="30" rx="5" fill="#3F4E5C"/>
<rect x="270" y="80" width="80" height="30" rx="5" fill="#3F4E5C"/>
<rect x="270" width="80" height="30" rx="5" fill="#3F4E5C"/>
<rect x="270" y="40" width="80" height="30" rx="5" fill="#3F4E5C"/>
<rect x="30" y="193" width="93" height="65" rx="5" fill="#161618"/>
<rect x="30" y="263" width="93" height="65" rx="5" fill="#161618"/>
<rect x="30" y="333" width="93" height="65" rx="5" fill="#161618"/>
<rect x="128" y="123" width="93" height="65" rx="5" fill="#161618"/>
<rect x="128" y="193" width="93" height="65" rx="5" fill="#161618"/>
<rect x="128" y="263" width="93" height="65" rx="5" fill="#161618"/>
<rect x="128" y="333" width="93" height="65" rx="5" fill="#161618"/>
<rect x="226" y="123" width="93" height="65" rx="5" fill="#161618"/>
<rect x="226" y="193" width="93" height="65" rx="5" fill="#161618"/>
<rect x="226" y="263" width="93" height="65" rx="5" fill="#161618"/>
<rect x="226" y="333" width="93" height="65" rx="5" fill="#161618"/>
<path d="M78.3916 164.79C75.9316 165.43 73.8216 164.86 72.0616 163.08C70.6216 161.62 69.6716 159.6 69.2116 157.02C68.9716 155.94 68.8916 154.78 68.9716 153.54C69.0516 152.28 69.2316 151.09 69.5116 149.97C69.7916 148.85 70.2716 147.79 70.9516 146.79C71.6316 145.77 72.4416 144.96 73.3816 144.36C73.5416 144.26 73.7316 144.17 73.9516 144.09C74.1716 143.99 74.3716 143.91 74.5516 143.85L75.0616 143.67C75.2216 143.63 75.3116 143.61 75.3316 143.61C75.8916 143.41 76.3916 143.51 76.8316 143.91C77.0716 143.89 77.4216 143.9 77.8816 143.94C78.3216 143.98 78.6216 144 78.7816 144C80.5016 144.4 81.8516 145.72 82.8316 147.96C83.6316 149.8 84.0416 151.9 84.0616 154.26C84.0816 156.7 83.6816 158.83 82.8616 160.65C81.8416 162.93 80.3516 164.31 78.3916 164.79ZM77.6716 161.91C78.6916 161.65 79.5116 160.82 80.1316 159.42C80.7716 157.98 81.0816 156.26 81.0616 154.26C81.0416 152.3 80.7216 150.6 80.1016 149.16C79.5216 147.84 78.8616 147.1 78.1216 146.94C77.7416 146.86 77.3516 146.85 76.9516 146.91C76.5716 146.95 76.1416 146.97 75.6616 146.97C75.4616 146.97 75.2616 146.93 75.0616 146.85C75.0416 146.87 75.0216 146.88 75.0016 146.88C74.2016 147.38 73.5416 148.14 73.0216 149.16C72.5216 150.16 72.1916 151.3 72.0316 152.58C71.8716 153.86 71.9116 155.17 72.1516 156.51C72.5116 158.47 73.1916 159.95 74.1916 160.95C75.1516 161.93 76.3116 162.25 77.6716 161.91Z" fill="white"/>
<path d="M75.2815 234.97C73.9815 234.87 72.8615 234.5 71.9215 233.86C71.0015 233.26 70.3315 232.56 69.9115 231.76C69.8315 231.6 69.5615 230.88 69.1015 229.6C68.9415 229.14 68.9615 228.74 69.1615 228.4C69.3615 228.06 69.6415 227.82 70.0015 227.68C70.3815 227.52 70.7515 227.51 71.1115 227.65C71.4915 227.77 71.7615 228.08 71.9215 228.58C72.3215 229.7 72.5315 230.27 72.5515 230.29C72.7315 230.63 73.0615 230.96 73.5415 231.28C74.0815 231.62 74.7615 231.84 75.5815 231.94C76.4015 232.02 77.2315 231.93 78.0715 231.67C78.9115 231.41 79.5915 231.04 80.1115 230.56C80.6315 230.06 80.9415 229.49 81.0415 228.85C81.2015 227.77 80.7615 226.9 79.7215 226.24C79.3215 226 78.8615 225.8 78.3415 225.64C78.1815 225.58 78.0215 225.53 77.8615 225.49L77.7115 225.46C77.6715 225.46 77.6415 225.45 77.6215 225.43C77.5815 225.43 77.5415 225.42 77.5015 225.4C77.4415 225.38 77.3815 225.35 77.3215 225.31C77.2215 225.27 77.1215 225.2 77.0215 225.1C76.7215 224.84 76.5515 224.5 76.5115 224.08C76.4715 223.62 76.6115 223.2 76.9315 222.82C77.0315 222.7 77.1515 222.59 77.2915 222.49L77.8915 222.1C78.4515 221.72 78.8715 221.4 79.1515 221.14C79.9915 220.4 80.2915 219.66 80.0515 218.92C79.6515 217.62 78.7615 216.88 77.3815 216.7C76.7215 216.6 76.0415 216.65 75.3415 216.85C74.6615 217.05 74.0615 217.37 73.5415 217.81C73.3815 217.97 73.2515 218.09 73.1515 218.17C73.0315 218.27 72.9315 218.4 72.8515 218.56C72.6715 218.84 72.5415 219.1 72.4615 219.34C72.4015 219.56 72.2715 219.85 72.0715 220.21C71.8715 220.67 71.5815 220.95 71.2015 221.05C70.8415 221.15 70.4715 221.12 70.0915 220.96C69.7315 220.78 69.4615 220.51 69.2815 220.15C69.1215 219.79 69.1515 219.38 69.3715 218.92C69.4115 218.82 69.5015 218.6 69.6415 218.26C69.8015 217.9 69.9215 217.65 70.0015 217.51C70.1415 217.21 70.3515 216.87 70.6315 216.49C70.9115 216.11 71.2415 215.77 71.6215 215.47C72.4615 214.73 73.4315 214.2 74.5315 213.88C75.6315 213.56 76.7215 213.48 77.8015 213.64C78.9615 213.8 80.0015 214.25 80.9215 214.99C81.8615 215.71 82.5315 216.69 82.9315 217.93C83.5715 219.99 82.9715 221.84 81.1315 223.48L81.1015 223.51L81.2815 223.63C82.2015 224.21 82.9315 224.97 83.4715 225.91C84.0315 226.85 84.2015 227.99 83.9815 229.33C83.7815 230.69 83.2015 231.82 82.2415 232.72C81.3015 233.62 80.2015 234.25 78.9415 234.61C77.8215 234.99 76.6015 235.11 75.2815 234.97Z" fill="white"/>
<path d="M73.4201 304.01C72.2201 303.35 71.2401 302.44 70.4801 301.28C69.7401 300.1 69.2601 298.85 69.0401 297.53C68.8201 296.21 68.7701 294.87 68.8901 293.51C69.0101 292.15 69.3001 290.87 69.7601 289.67C70.2401 288.39 70.8901 287.26 71.7101 286.28C72.5301 285.28 73.4801 284.53 74.5601 284.03C77.1201 282.95 79.7801 283.47 82.5401 285.59C82.9401 285.89 83.1501 286.24 83.1701 286.64C83.1901 287.04 83.0801 287.4 82.8401 287.72C82.6001 288.02 82.2801 288.22 81.8801 288.32C81.5001 288.42 81.1201 288.32 80.7401 288.02C78.8801 286.6 77.2201 286.2 75.7601 286.82C74.3801 287.44 73.3101 288.75 72.5501 290.75C72.1901 291.69 71.9601 292.67 71.8601 293.69C73.1201 292.55 74.4001 291.82 75.7001 291.5C76.2201 291.38 76.8001 291.36 77.4401 291.44C78.1001 291.5 78.7401 291.63 79.3601 291.83C80.0001 292.03 80.5401 292.27 80.9801 292.55C82.2601 293.29 83.1801 294.22 83.7401 295.34C84.2801 296.46 84.4801 297.58 84.3401 298.7C84.2201 299.82 83.8301 300.86 83.1701 301.82C82.5101 302.78 81.6801 303.54 80.6801 304.1C79.6801 304.68 78.5501 304.99 77.2901 305.03C76.0301 305.09 74.7401 304.75 73.4201 304.01ZM77.2001 301.97C77.9601 301.95 78.6301 301.78 79.2101 301.46C79.8101 301.12 80.3101 300.67 80.7101 300.11C81.2701 299.23 81.4701 298.34 81.3101 297.44C81.1501 296.54 80.5401 295.78 79.4801 295.16C79.2201 295.02 78.8901 294.89 78.4901 294.77C78.0901 294.63 77.7001 294.53 77.3201 294.47C76.9401 294.41 76.6401 294.41 76.4201 294.47C75.9001 294.59 75.4401 294.78 75.0401 295.04C74.6601 295.28 74.2801 295.57 73.9001 295.91L72.1601 297.65C72.6401 299.41 73.5401 300.64 74.8601 301.34C75.6801 301.78 76.4601 301.99 77.2001 301.97Z" fill="white"/>
<path d="M82.4681 373.68C82.4281 374.18 82.2481 374.54 81.9281 374.76C81.6081 374.98 81.2481 375.07 80.8481 375.03C80.4681 375.01 80.1381 374.87 79.8581 374.61C79.5781 374.33 79.4481 373.94 79.4681 373.44C79.6681 370.14 79.8081 367.37 79.8881 365.13C78.8081 366.19 77.5281 366.83 76.0481 367.05C74.5681 367.23 73.2681 367.04 72.1481 366.48C71.0281 365.9 70.1681 365.08 69.5681 364.02C68.9681 362.94 68.6781 361.74 68.6981 360.42C68.7381 358.5 69.4781 356.86 70.9181 355.5C71.5981 354.86 72.4881 354.38 73.5881 354.06C74.6881 353.72 75.8981 353.61 77.2181 353.73C78.0981 353.81 78.8181 353.99 79.3781 354.27C79.5781 354.37 79.8381 354.52 80.1581 354.72L80.6381 355.05C80.7981 354.97 80.9781 354.92 81.1781 354.9C81.5981 354.88 81.9581 355.01 82.2581 355.29C82.5781 355.55 82.7481 355.89 82.7681 356.31C83.0481 361.03 82.9481 366.82 82.4681 373.68ZM75.6281 364.05C76.3681 363.95 77.0181 363.65 77.5781 363.15C78.1581 362.65 78.5981 362 78.8981 361.2C79.0981 360.7 79.2881 359.59 79.4681 357.87C79.4481 357.85 79.4181 357.83 79.3781 357.81L78.5081 357.24L78.0281 356.94C77.8081 356.84 77.4581 356.77 76.9781 356.73C76.0581 356.65 75.2481 356.7 74.5481 356.88C73.6081 357.14 72.9081 357.62 72.4481 358.32C71.9881 359 71.7381 359.73 71.6981 360.51C71.6781 361.25 71.8281 361.91 72.1481 362.49C72.4681 363.07 72.9181 363.51 73.4981 363.81C74.0981 364.09 74.8081 364.17 75.6281 364.05Z" fill="white"/>
<path d="M177.789 163.44C177.769 163.92 177.599 164.28 177.279 164.52C176.979 164.76 176.629 164.88 176.229 164.88C175.849 164.86 175.519 164.73 175.239 164.49C174.959 164.23 174.829 163.84 174.849 163.32C175.009 158.18 175.039 153.48 174.939 149.22C174.659 149.48 174.349 149.7 174.009 149.88C173.329 150.3 172.369 150.62 171.129 150.84C170.629 150.94 170.229 150.86 169.929 150.6C169.629 150.34 169.449 150.02 169.389 149.64C169.329 149.24 169.389 148.87 169.569 148.53C169.769 148.19 170.109 147.98 170.589 147.9C171.469 147.74 172.099 147.54 172.479 147.3C172.899 147.06 173.339 146.61 173.799 145.95V145.92C173.799 145.88 173.819 145.78 173.859 145.62C173.919 145.44 173.959 145.32 173.979 145.26C174.379 144.08 175.089 143.52 176.109 143.58C176.669 143.62 177.089 143.88 177.369 144.36C177.509 144.56 177.619 144.81 177.699 145.11C177.779 145.43 177.829 145.85 177.849 146.37C177.869 146.59 177.879 147.43 177.879 148.89C177.879 149.57 177.879 150.35 177.879 151.23C177.899 152.11 177.909 153 177.909 153.9C177.909 154.8 177.909 155.63 177.909 156.39C177.909 157.03 177.899 157.75 177.879 158.55C177.879 159.35 177.869 160.18 177.849 161.04C177.829 161.9 177.809 162.7 177.789 163.44Z" fill="white"/>
<path d="M177.075 235.15C176.655 235.15 176.295 235.02 175.995 234.76C175.695 234.5 175.545 234.13 175.545 233.65C175.545 232.53 175.565 231.07 175.605 229.27L173.355 229.3C171.895 229.3 170.545 229.32 169.305 229.36C168.465 229.4 167.775 229.25 167.235 228.91C166.695 228.55 166.425 228.01 166.425 227.29C166.425 226.93 166.525 226.57 166.725 226.21C166.925 225.85 167.275 225.42 167.775 224.92C167.995 224.7 168.325 224.3 168.765 223.72C169.225 223.12 169.725 222.43 170.265 221.65C170.825 220.85 171.385 220.03 171.945 219.19C172.525 218.33 173.045 217.53 173.505 216.79C173.985 216.03 174.355 215.4 174.615 214.9C174.895 214.36 175.195 213.98 175.515 213.76C175.835 213.52 176.215 213.4 176.655 213.4C177.115 213.4 177.515 213.57 177.855 213.91C178.195 214.25 178.385 214.8 178.425 215.56C178.705 220.06 178.795 223.63 178.695 226.27C180.115 226.27 181.115 226.28 181.695 226.3C182.155 226.3 182.515 226.44 182.775 226.72C183.035 227 183.165 227.34 183.165 227.74C183.165 228.16 183.025 228.53 182.745 228.85C182.485 229.15 182.115 229.3 181.635 229.3C181.035 229.28 180.035 229.27 178.635 229.27C178.575 230.67 178.545 232.15 178.545 233.71C178.545 234.17 178.395 234.53 178.095 234.79C177.815 235.03 177.475 235.15 177.075 235.15ZM170.535 226.33L175.695 226.27C175.715 225.75 175.725 225.14 175.725 224.44C175.725 223.74 175.725 223.03 175.725 222.31C175.725 221.59 175.715 220.93 175.695 220.33C175.675 219.71 175.645 219.22 175.605 218.86C174.185 221.28 172.495 223.77 170.535 226.33Z" fill="white"/>
<path d="M172.172 304.31C171.972 304.77 171.682 305.05 171.302 305.15C170.922 305.25 170.552 305.21 170.192 305.03C169.832 304.85 169.572 304.58 169.412 304.22C169.252 303.86 169.272 303.45 169.472 302.99C169.572 302.79 169.812 302.25 170.192 301.37L170.942 299.63L171.692 298.04C172.052 297.24 172.322 296.67 172.502 296.33L173.312 294.68C173.652 294 173.952 293.44 174.212 293L175.112 291.44C175.452 290.86 175.792 290.32 176.132 289.82L177.152 288.29C177.172 288.25 177.302 287.97 177.542 287.45L178.112 286.7H178.082C177.262 286.66 176.172 286.64 174.812 286.64C172.172 286.64 170.432 286.66 169.592 286.7C169.092 286.72 168.712 286.58 168.452 286.28C168.212 285.98 168.082 285.63 168.062 285.23C168.042 284.81 168.142 284.44 168.362 284.12C168.582 283.78 168.932 283.6 169.412 283.58C170.312 283.54 172.112 283.52 174.812 283.52C176.132 283.52 177.262 283.54 178.202 283.58C178.742 283.6 179.152 283.63 179.432 283.67C179.632 283.69 179.802 283.71 179.942 283.73C180.282 283.81 180.582 283.98 180.842 284.24C181.402 284.84 181.592 285.59 181.412 286.49C181.332 286.99 181.122 287.62 180.782 288.38C180.682 288.56 180.552 288.75 180.392 288.95C180.272 289.19 180.162 289.38 180.062 289.52L179.702 289.94L179.552 290.18C179.212 290.64 178.882 291.11 178.562 291.59C178.262 292.05 177.942 292.56 177.602 293.12L176.762 294.56C176.562 294.96 176.292 295.5 175.952 296.18L175.172 297.68L174.392 299.36L173.672 300.92L172.892 302.69C172.492 303.59 172.252 304.13 172.172 304.31Z" fill="white"/>
<path d="M276.462 165.06C273.502 164.86 270.962 164.78 268.842 164.82C268.782 164.82 268.622 164.83 268.362 164.85C268.122 164.85 267.862 164.86 267.582 164.88C267.302 164.88 267.072 164.88 266.892 164.88C266.372 164.9 265.962 164.91 265.662 164.91C265.462 164.93 265.312 164.93 265.212 164.91H265.002C264.842 164.91 264.672 164.88 264.492 164.82C263.992 164.62 263.502 164.32 263.022 163.92C262.562 163.5 262.282 162.97 262.182 162.33C262.062 161.65 262.232 160.93 262.692 160.17C262.972 159.69 263.412 159.14 264.012 158.52C264.492 158.04 265.712 156.95 267.672 155.25C269.332 153.81 270.522 152.69 271.242 151.89C272.122 150.87 272.572 150.09 272.592 149.55C272.612 148.57 272.382 147.85 271.902 147.39C271.442 146.91 270.822 146.65 270.042 146.61C269.202 146.59 268.392 146.82 267.612 147.3C266.852 147.76 266.302 148.4 265.962 149.22C265.942 149.3 265.922 149.44 265.902 149.64C265.862 150.26 265.842 150.58 265.842 150.6C265.762 151.08 265.552 151.43 265.212 151.65C264.892 151.85 264.542 151.93 264.162 151.89C263.782 151.83 263.452 151.66 263.172 151.38C262.912 151.08 262.802 150.68 262.842 150.18C262.862 150.08 262.872 149.95 262.872 149.79C262.892 149.61 262.912 149.48 262.932 149.4C262.972 148.9 263.062 148.48 263.202 148.14C263.582 147.16 264.132 146.33 264.852 145.65C265.592 144.97 266.422 144.46 267.342 144.12C268.262 143.76 269.192 143.59 270.132 143.61C271.172 143.65 272.102 143.92 272.922 144.42C273.762 144.9 274.422 145.58 274.902 146.46C275.382 147.34 275.612 148.39 275.592 149.61C275.552 150.89 274.852 152.31 273.492 153.87C272.732 154.73 271.452 155.94 269.652 157.5C267.792 159.1 266.622 160.14 266.142 160.62C265.722 161.06 265.422 161.43 265.242 161.73C265.222 161.75 265.212 161.78 265.212 161.82C265.252 161.86 265.312 161.89 265.392 161.91H265.602C265.882 161.91 266.282 161.9 266.802 161.88C266.982 161.88 267.212 161.88 267.492 161.88C267.792 161.86 268.062 161.85 268.302 161.85C268.562 161.83 268.722 161.82 268.782 161.82C271.002 161.78 273.622 161.86 276.642 162.06C277.142 162.08 277.502 162.25 277.722 162.57C277.962 162.89 278.062 163.25 278.022 163.65C278.002 164.03 277.852 164.37 277.572 164.67C277.312 164.95 276.942 165.08 276.462 165.06Z" fill="white"/>
<path d="M272.001 234.55C271.261 234.83 270.501 235 269.721 235.06C268.941 235.12 268.131 235.03 267.291 234.79C266.471 234.53 265.751 234.11 265.131 233.53C264.691 233.11 264.291 232.54 263.931 231.82L263.601 231.07C263.481 230.83 263.381 230.64 263.301 230.5C263.041 230.08 262.981 229.69 263.121 229.33C263.261 228.95 263.501 228.66 263.841 228.46C264.181 228.26 264.541 228.19 264.921 228.25C265.321 228.31 265.641 228.56 265.881 229C266.021 229.22 266.161 229.49 266.301 229.81L266.631 230.5C266.831 230.9 267.011 231.17 267.171 231.31C267.611 231.71 268.161 231.95 268.821 232.03C269.501 232.11 270.211 232.02 270.951 231.76C271.671 231.48 272.261 231.09 272.721 230.59C273.201 230.09 273.471 229.56 273.531 229C273.671 227.96 273.511 227.01 273.051 226.15C272.591 225.29 271.931 224.67 271.071 224.29C270.211 223.91 269.311 223.85 268.371 224.11L267.921 224.32L266.811 224.86C266.311 225.1 265.901 225.27 265.581 225.37C265.301 225.45 265.061 225.5 264.861 225.52C264.381 225.56 263.961 225.46 263.601 225.22C262.741 224.64 262.531 223.79 262.971 222.67C262.991 222.59 263.041 222.47 263.121 222.31C263.201 222.15 263.241 222.07 263.241 222.07V222.04C263.541 219.88 263.691 217.7 263.691 215.5C263.691 215.1 263.831 214.75 264.111 214.45C264.391 213.95 264.821 213.69 265.401 213.67C266.941 213.63 270.031 213.61 274.671 213.61C275.171 213.61 275.541 213.76 275.781 214.06C276.041 214.36 276.171 214.71 276.171 215.11C276.171 215.51 276.041 215.86 275.781 216.16C275.541 216.46 275.171 216.61 274.671 216.61C270.551 216.61 267.881 216.62 266.661 216.64C266.621 218.52 266.511 220.23 266.331 221.77L266.601 221.62C267.061 221.4 267.371 221.27 267.531 221.23C268.871 220.83 270.121 220.81 271.281 221.17C272.461 221.53 273.471 222.1 274.311 222.88C275.131 223.66 275.741 224.64 276.141 225.82C276.561 226.98 276.691 228.18 276.531 229.42C276.371 230.6 275.861 231.65 275.001 232.57C274.161 233.47 273.161 234.13 272.001 234.55Z" fill="white"/>
<path d="M268.315 305C266.955 304.8 265.775 304.32 264.775 303.56C263.775 302.78 263.095 301.83 262.735 300.71C262.355 299.53 262.375 298.35 262.795 297.17C263.235 295.99 264.045 294.96 265.225 294.08C265.385 293.96 265.565 293.84 265.765 293.72C265.525 293.64 265.315 293.56 265.135 293.48C263.895 292.88 263.035 292.13 262.555 291.23C261.815 289.87 262.035 288.29 263.215 286.49C264.615 284.35 266.855 283.37 269.935 283.55C270.055 283.53 270.165 283.52 270.265 283.52C270.345 283.52 270.465 283.51 270.625 283.49L271.165 283.46C271.765 283.4 272.295 283.44 272.755 283.58C273.675 283.9 274.435 284.43 275.035 285.17C275.635 285.91 276.055 286.75 276.295 287.69C276.515 288.51 276.545 289.41 276.385 290.39C276.225 291.37 275.855 292.21 275.275 292.91C274.915 293.37 274.465 293.77 273.925 294.11C274.645 294.69 275.235 295.34 275.695 296.06C276.575 297.5 276.955 298.85 276.835 300.11C276.735 301.35 276.195 302.42 275.215 303.32C274.375 304.06 273.325 304.58 272.065 304.88C270.825 305.16 269.575 305.2 268.315 305ZM268.735 302.06C269.655 302.18 270.515 302.15 271.315 301.97C272.115 301.77 272.745 301.47 273.205 301.07C274.105 300.27 274.095 299.14 273.175 297.68C272.615 296.78 271.635 296.02 270.235 295.4C269.695 295.52 269.105 295.67 268.465 295.85C267.845 296.03 267.365 296.24 267.025 296.48C266.325 297 265.865 297.55 265.645 298.13C265.445 298.71 265.425 299.26 265.585 299.78C265.765 300.32 266.125 300.8 266.665 301.22C267.205 301.64 267.895 301.92 268.735 302.06ZM270.505 292.25C271.725 291.95 272.535 291.55 272.935 291.05C273.475 290.37 273.615 289.49 273.355 288.41C273.215 287.79 272.955 287.3 272.575 286.94C272.455 286.94 272.335 286.93 272.215 286.91C271.115 286.69 270.195 286.56 269.455 286.52C268.695 286.5 267.975 286.61 267.295 286.85C266.635 287.09 266.115 287.51 265.735 288.11C265.195 288.93 265.015 289.51 265.195 289.85C265.355 290.15 265.765 290.45 266.425 290.75C266.785 290.93 267.725 291.28 269.245 291.8C269.745 291.96 270.165 292.11 270.505 292.25Z" fill="white"/>
<path d="M186.41 351.797H180.287V350.007C180.287 348.8 179.305 347.818 178.098 347.818H171.901C170.694 347.818 169.712 348.8 169.712 350.007V351.797H163.589C161.901 351.797 160.52 353.171 160.52 354.866V357.877C160.52 358.277 160.847 358.604 161.247 358.604H162.767V381.12C162.767 382.815 164.141 384.189 165.829 384.189H184.163C185.858 384.189 187.232 382.815 187.232 381.12V358.597H188.752C189.152 358.597 189.48 358.269 189.48 357.869V354.858C189.48 353.171 188.105 351.797 186.41 351.797ZM171.167 350.007C171.167 349.6 171.494 349.273 171.901 349.273H178.098C178.505 349.273 178.832 349.6 178.832 350.007V351.797H171.167V350.007ZM185.778 381.113C185.778 382.007 185.058 382.727 184.163 382.727H165.829C164.941 382.727 164.221 382.007 164.221 381.113V358.597H185.778V381.113ZM188.025 357.142H161.974V354.858C161.974 353.971 162.694 353.244 163.589 353.244H186.418C187.305 353.244 188.032 353.964 188.032 354.858V357.142H188.025Z" fill="white"/>
<path d="M177.378 379.819C177.778 379.819 178.105 379.491 178.105 379.091V362.233C178.105 361.833 177.778 361.506 177.378 361.506C176.978 361.506 176.651 361.833 176.651 362.233V379.091C176.651 379.491 176.978 379.819 177.378 379.819ZM172.622 379.819C173.022 379.819 173.349 379.491 173.349 379.091V362.233C173.349 361.833 173.022 361.506 172.622 361.506C172.222 361.506 171.894 361.833 171.894 362.233V379.091C171.894 379.491 172.214 379.819 172.622 379.819ZM182.142 379.819C182.542 379.819 182.869 379.491 182.869 379.091V362.233C182.869 361.833 182.542 361.506 182.142 361.506C181.742 361.506 181.414 361.833 181.414 362.233V379.091C181.414 379.491 181.742 379.819 182.142 379.819ZM167.858 379.819C168.258 379.819 168.585 379.491 168.585 379.091V362.233C168.585 361.833 168.258 361.506 167.858 361.506C167.458 361.506 167.131 361.833 167.131 362.233V379.091C167.131 379.491 167.458 379.819 167.858 379.819Z" fill="white"/>
<path d="M263.561 376.48C263.772 376.721 264.033 376.915 264.325 377.048C264.617 377.181 264.934 377.25 265.255 377.25H284.494C285.092 377.247 285.664 377.009 286.086 376.586C286.508 376.164 286.747 375.592 286.75 374.995V357.005C286.747 356.408 286.508 355.836 286.086 355.414C285.664 354.991 285.092 354.753 284.494 354.75H265.255C264.934 354.75 264.618 354.819 264.326 354.952C264.034 355.084 263.773 355.278 263.562 355.519L256.619 366L263.561 376.477V376.48Z" stroke="white" stroke-width="2" stroke-linejoin="round"/>
<path d="M279.302 361.025L269.145 371.182M279.302 371.182L269.145 361.025" stroke="white" stroke-width="2" stroke-linecap="round" stroke-linejoin="round"/>
<path d="M32.6053 19.982C31.8253 19.922 31.1533 19.7 30.5893 19.316C30.0373 18.956 29.6353 18.536 29.3833 18.056C29.3353 17.96 29.1733 17.528 28.8973 16.76C28.8013 16.484 28.8133 16.244 28.9333 16.04C29.0533 15.836 29.2213 15.692 29.4373 15.608C29.6653 15.512 29.8873 15.506 30.1033 15.59C30.3313 15.662 30.4933 15.848 30.5893 16.148C30.8293 16.82 30.9553 17.162 30.9673 17.174C31.0753 17.378 31.2733 17.576 31.5613 17.768C31.8853 17.972 32.2933 18.104 32.7853 18.164C33.2773 18.212 33.7753 18.158 34.2793 18.002C34.7833 17.846 35.1913 17.624 35.5033 17.336C35.8153 17.036 36.0013 16.694 36.0613 16.31C36.1573 15.662 35.8933 15.14 35.2693 14.744C35.0293 14.6 34.7533 14.48 34.4413 14.384C34.3453 14.348 34.2493 14.318 34.1533 14.294L34.0633 14.276C34.0393 14.276 34.0213 14.27 34.0093 14.258C33.9853 14.258 33.9613 14.252 33.9373 14.24C33.9013 14.228 33.8653 14.21 33.8293 14.186C33.7693 14.162 33.7093 14.12 33.6493 14.06C33.4693 13.904 33.3673 13.7 33.3433 13.448C33.3193 13.172 33.4033 12.92 33.5953 12.692C33.6553 12.62 33.7273 12.554 33.8113 12.494L34.1713 12.26C34.5073 12.032 34.7593 11.84 34.9273 11.684C35.4313 11.24 35.6113 10.796 35.4673 10.352C35.2273 9.572 34.6933 9.128 33.8653 9.02C33.4693 8.96 33.0613 8.99 32.6413 9.11C32.2333 9.23 31.8733 9.422 31.5613 9.686C31.4653 9.782 31.3873 9.854 31.3273 9.902C31.2553 9.962 31.1953 10.04 31.1473 10.136C31.0393 10.304 30.9613 10.46 30.9133 10.604C30.8773 10.736 30.7993 10.91 30.6793 11.126C30.5593 11.402 30.3853 11.57 30.1573 11.63C29.9413 11.69 29.7193 11.672 29.4913 11.576C29.2753 11.468 29.1133 11.306 29.0053 11.09C28.9093 10.874 28.9273 10.628 29.0593 10.352C29.0833 10.292 29.1373 10.16 29.2213 9.956C29.3173 9.74 29.3893 9.59 29.4373 9.506C29.5213 9.326 29.6473 9.122 29.8153 8.894C29.9833 8.666 30.1813 8.462 30.4093 8.282C30.9133 7.838 31.4953 7.52 32.1553 7.328C32.8153 7.136 33.4693 7.088 34.1173 7.184C34.8133 7.28 35.4373 7.55 35.9893 7.994C36.5533 8.426 36.9553 9.014 37.1953 9.758C37.5793 10.994 37.2193 12.104 36.1153 13.088L36.0973 13.106L36.2053 13.178C36.7573 13.526 37.1953 13.982 37.5193 14.546C37.8553 15.11 37.9573 15.794 37.8253 16.598C37.7053 17.414 37.3573 18.092 36.7813 18.632C36.2173 19.172 35.5573 19.55 34.8013 19.766C34.1293 19.994 33.3973 20.066 32.6053 19.982ZM50.0695 20.036C48.2935 19.916 46.7695 19.868 45.4975 19.892C45.4615 19.892 45.3655 19.898 45.2095 19.91C45.0655 19.91 44.9095 19.916 44.7415 19.928C44.5735 19.928 44.4355 19.928 44.3275 19.928C44.0155 19.94 43.7695 19.946 43.5895 19.946C43.4695 19.958 43.3795 19.958 43.3195 19.946H43.1935C43.0975 19.946 42.9955 19.928 42.8875 19.892C42.5875 19.772 42.2935 19.592 42.0055 19.352C41.7295 19.1 41.5615 18.782 41.5015 18.398C41.4295 17.99 41.5315 17.558 41.8075 17.102C41.9755 16.814 42.2395 16.484 42.5995 16.112C42.8875 15.824 43.6195 15.17 44.7955 14.15C45.7915 13.286 46.5055 12.614 46.9375 12.134C47.4655 11.522 47.7355 11.054 47.7475 10.73C47.7595 10.142 47.6215 9.71 47.3335 9.434C47.0575 9.146 46.6855 8.99 46.2175 8.966C45.7135 8.954 45.2275 9.092 44.7595 9.38C44.3035 9.656 43.9735 10.04 43.7695 10.532C43.7575 10.58 43.7455 10.664 43.7335 10.784C43.7095 11.156 43.6975 11.348 43.6975 11.36C43.6495 11.648 43.5235 11.858 43.3195 11.99C43.1275 12.11 42.9175 12.158 42.6895 12.134C42.4615 12.098 42.2635 11.996 42.0955 11.828C41.9395 11.648 41.8735 11.408 41.8975 11.108C41.9095 11.048 41.9155 10.97 41.9155 10.874C41.9275 10.766 41.9395 10.688 41.9515 10.64C41.9755 10.34 42.0295 10.088 42.1135 9.884C42.3415 9.296 42.6715 8.798 43.1035 8.39C43.5475 7.982 44.0455 7.676 44.5975 7.472C45.1495 7.256 45.7075 7.154 46.2715 7.166C46.8955 7.19 47.4535 7.352 47.9455 7.652C48.4495 7.94 48.8455 8.348 49.1335 8.876C49.4215 9.404 49.5595 10.034 49.5475 10.766C49.5235 11.534 49.1035 12.386 48.2875 13.322C47.8315 13.838 47.0635 14.564 45.9835 15.5C44.8675 16.46 44.1655 17.084 43.8775 17.372C43.6255 17.636 43.4455 17.858 43.3375 18.038C43.3255 18.05 43.3195 18.068 43.3195 18.092C43.3435 18.116 43.3795 18.134 43.4275 18.146H43.5535C43.7215 18.146 43.9615 18.14 44.2735 18.128C44.3815 18.128 44.5195 18.128 44.6875 18.128C44.8675 18.116 45.0295 18.11 45.1735 18.11C45.3295 18.098 45.4255 18.092 45.4615 18.092C46.7935 18.068 48.3655 18.116 50.1775 18.236C50.4775 18.248 50.6935 18.35 50.8255 18.542C50.9695 18.734 51.0295 18.95 51.0055 19.19C50.9935 19.418 50.9035 19.622 50.7355 19.802C50.5795 19.97 50.3575 20.048 50.0695 20.036Z" fill="#7655F5"/>
<path d="M121.638 19.406C120.918 19.01 120.33 18.464 119.874 17.768C119.43 17.06 119.142 16.31 119.01 15.518C118.878 14.726 118.848 13.922 118.92 13.106C118.992 12.29 119.166 11.522 119.442 10.802C119.73 10.034 120.12 9.356 120.612 8.768C121.104 8.168 121.674 7.718 122.322 7.418C123.858 6.77 125.454 7.082 127.11 8.354C127.35 8.534 127.476 8.744 127.488 8.984C127.5 9.224 127.434 9.44 127.29 9.632C127.146 9.812 126.954 9.932 126.714 9.992C126.486 10.052 126.258 9.992 126.03 9.812C124.914 8.96 123.918 8.72 123.042 9.092C122.214 9.464 121.572 10.25 121.116 11.45C120.9 12.014 120.762 12.602 120.702 13.214C121.458 12.53 122.226 12.092 123.006 11.9C123.318 11.828 123.666 11.816 124.05 11.864C124.446 11.9 124.83 11.978 125.202 12.098C125.586 12.218 125.91 12.362 126.174 12.53C126.942 12.974 127.494 13.532 127.83 14.204C128.154 14.876 128.274 15.548 128.19 16.22C128.118 16.892 127.884 17.516 127.488 18.092C127.092 18.668 126.594 19.124 125.994 19.46C125.394 19.808 124.716 19.994 123.96 20.018C123.204 20.054 122.43 19.85 121.638 19.406ZM123.906 18.182C124.362 18.17 124.764 18.068 125.112 17.876C125.472 17.672 125.772 17.402 126.012 17.066C126.348 16.538 126.468 16.004 126.372 15.464C126.276 14.924 125.91 14.468 125.274 14.096C125.118 14.012 124.92 13.934 124.68 13.862C124.44 13.778 124.206 13.718 123.978 13.682C123.75 13.646 123.57 13.646 123.438 13.682C123.126 13.754 122.85 13.868 122.61 14.024C122.382 14.168 122.154 14.342 121.926 14.546L120.882 15.59C121.17 16.646 121.71 17.384 122.502 17.804C122.994 18.068 123.462 18.194 123.906 18.182ZM137.358 19.73C136.914 19.898 136.458 20 135.99 20.036C135.522 20.072 135.036 20.018 134.532 19.874C134.04 19.718 133.608 19.466 133.236 19.118C132.972 18.866 132.732 18.524 132.516 18.092L132.318 17.642C132.246 17.498 132.186 17.384 132.138 17.3C131.982 17.048 131.946 16.814 132.03 16.598C132.114 16.37 132.258 16.196 132.462 16.076C132.666 15.956 132.882 15.914 133.11 15.95C133.35 15.986 133.542 16.136 133.686 16.4C133.77 16.532 133.854 16.694 133.938 16.886L134.136 17.3C134.256 17.54 134.364 17.702 134.46 17.786C134.724 18.026 135.054 18.17 135.45 18.218C135.858 18.266 136.284 18.212 136.728 18.056C137.16 17.888 137.514 17.654 137.79 17.354C138.078 17.054 138.24 16.736 138.276 16.4C138.36 15.776 138.264 15.206 137.988 14.69C137.712 14.174 137.316 13.802 136.8 13.574C136.284 13.346 135.744 13.31 135.18 13.466L134.91 13.592L134.244 13.916C133.944 14.06 133.698 14.162 133.506 14.222C133.338 14.27 133.194 14.3 133.074 14.312C132.786 14.336 132.534 14.276 132.318 14.132C131.802 13.784 131.676 13.274 131.94 12.602C131.952 12.554 131.982 12.482 132.03 12.386C132.078 12.29 132.102 12.242 132.102 12.242V12.224C132.282 10.928 132.372 9.62 132.372 8.3C132.372 8.06 132.456 7.85 132.624 7.67C132.792 7.37 133.05 7.214 133.398 7.202C134.322 7.178 136.176 7.166 138.96 7.166C139.26 7.166 139.482 7.256 139.626 7.436C139.782 7.616 139.86 7.826 139.86 8.066C139.86 8.306 139.782 8.516 139.626 8.696C139.482 8.876 139.26 8.966 138.96 8.966C136.488 8.966 134.886 8.972 134.154 8.984C134.13 10.112 134.064 11.138 133.956 12.062L134.118 11.972C134.394 11.84 134.58 11.762 134.676 11.738C135.48 11.498 136.23 11.486 136.926 11.702C137.634 11.918 138.24 12.26 138.744 12.728C139.236 13.196 139.602 13.784 139.842 14.492C140.094 15.188 140.172 15.908 140.076 16.652C139.98 17.36 139.674 17.99 139.158 18.542C138.654 19.082 138.054 19.478 137.358 19.73Z" fill="#7655F5"/>
</svg>
