<svg width="130" height="130" viewBox="0 0 130 130" fill="none" xmlns="http://www.w3.org/2000/svg">
<path d="M0 5C0 2.23858 2.23858 0 5 0H35C37.7614 0 40 2.23858 40 5V35C40 37.7614 37.7614 40 35 40H5C2.23858 40 0 37.7614 0 35V5Z" fill="#2A3F53"/>
<path d="M0 50C0 47.2386 2.23858 45 5 45H35C37.7614 45 40 47.2386 40 50V80C40 82.7614 37.7614 85 35 85H5C2.23858 85 0 82.7614 0 80V50Z" fill="#2A3F53"/>
<path d="M0 95C0 92.2386 2.23858 90 5 90H35C37.7614 90 40 92.2386 40 95V125C40 127.761 37.7614 130 35 130H5C2.23858 130 0 127.761 0 125V95Z" fill="#7655F5"/>
<path d="M45 95C45 92.2386 47.2386 90 50 90H80C82.7614 90 85 92.2386 85 95V125C85 127.761 82.7614 130 80 130H50C47.2386 130 45 127.761 45 125V95Z" fill="#7655F5"/>
<path d="M90 95C90 92.2386 92.2386 90 95 90H125C127.761 90 130 92.2386 130 95V125C130 127.761 127.761 130 125 130H95C92.2386 130 90 127.761 90 125V95Z" fill="#2A3F53"/>
<path d="M45 5C45 2.23858 47.2386 0 50 0H80C82.7614 0 85 2.23858 85 5V35C85 37.7614 82.7614 40 80 40H50C47.2386 40 45 37.7614 45 35V5Z" fill="#7655F5"/>
<path d="M90 5C90 2.23858 92.2386 0 95 0H125C127.761 0 130 2.23858 130 5V35C130 37.7614 127.761 40 125 40H95C92.2386 40 90 37.7614 90 35V5Z" fill="#2A3F53"/>
<path d="M90 50C90 47.2386 92.2386 45 95 45H125C127.761 45 130 47.2386 130 50V80C130 82.7614 127.761 85 125 85H95C92.2386 85 90 82.7614 90 80V50Z" fill="#2A3F53"/>
<path d="M45 50C45 47.2386 47.2386 45 50 45H80C82.7614 45 85 47.2386 85 50V80C85 82.7614 82.7614 85 80 85H50C47.2386 85 45 82.7614 45 80V50Z" fill="#7655F5"/>
</svg>
