<svg width="191" height="322" viewBox="0 0 191 322" fill="none" xmlns="http://www.w3.org/2000/svg">
<path d="M69 277C69 274.239 71.2386 272 74 272H114C116.761 272 119 274.239 119 277V317C119 319.761 116.761 322 114 322H74C71.2386 322 69 319.761 69 317V277Z" fill="#03F0D6"/>
<path d="M141 154C141 151.239 143.239 149 146 149H186C188.761 149 191 151.239 191 154V194C191 196.761 188.761 199 186 199H146C143.239 199 141 196.761 141 194V154Z" fill="#FF0000"/>
<path d="M91 5C91 2.23858 93.2386 0 96 0H136C138.761 0 141 2.23858 141 5V45C141 47.7614 138.761 50 136 50H96C93.2386 50 91 47.7614 91 45V5Z" fill="#FF0000"/>
<path d="M0 130C0 127.239 2.23858 125 5 125H45C47.7614 125 50 127.239 50 130V170C50 172.761 47.7614 175 45 175H5C2.23858 175 0 172.761 0 170V130Z" fill="#FF0000"/>
</svg>
