<svg width="2560" height="1440" viewBox="0 0 2560 1440" fill="none" xmlns="http://www.w3.org/2000/svg">
<rect width="2560" height="1440" fill="url(#paint0_linear_3331_423)"/>
<ellipse cx="1682.5" cy="448.5" rx="3.5" ry="3.5" transform="rotate(90 1682.5 448.5)" fill="#D9D9D9"/>
<ellipse cx="2290.5" cy="69.5" rx="3.5" ry="2.5" transform="rotate(90 2290.5 69.5)" fill="#D9D9D9"/>
<ellipse cx="3.23949" cy="3.11754" rx="3.23949" ry="3.11754" transform="matrix(0.968681 0.248307 -0.26971 0.962942 297.039 130.015)" fill="#D9D9D9"/>
<ellipse cx="1438.5" cy="915" rx="3" ry="3.5" transform="rotate(90 1438.5 915)" fill="#D9D9D9"/>
<ellipse cx="1566.5" cy="1323" rx="3" ry="3.5" transform="rotate(90 1566.5 1323)" fill="#D9D9D9"/>
<ellipse cx="985.5" cy="1160" rx="3" ry="3.5" transform="rotate(90 985.5 1160)" fill="#D9D9D9"/>
<ellipse cx="2047.5" cy="535.5" rx="2.5" ry="3.5" transform="rotate(90 2047.5 535.5)" fill="#D9D9D9"/>
<ellipse cx="1974.5" cy="778.5" rx="3.5" ry="2.5" transform="rotate(90 1974.5 778.5)" fill="#D9D9D9"/>
<circle cx="2472.5" cy="415.5" r="2.5" transform="rotate(90 2472.5 415.5)" fill="#D9D9D9"/>
<ellipse cx="3.23949" cy="3.11754" rx="3.23949" ry="3.11754" transform="matrix(0.968681 0.248307 -0.26971 0.962942 693.496 51.459)" fill="#D9D9D9"/>
<ellipse cx="1947.5" cy="1049.5" rx="3.5" ry="3.5" transform="rotate(90 1947.5 1049.5)" fill="#D9D9D9"/>
<ellipse cx="2556.5" cy="670" rx="3" ry="3.5" transform="rotate(90 2556.5 670)" fill="#D9D9D9"/>
<ellipse cx="3.23949" cy="3.11754" rx="3.23949" ry="3.11754" transform="matrix(0.968681 0.248307 -0.26971 0.962942 972.672 39.3672)" fill="#D9D9D9"/>
<ellipse cx="2192.5" cy="303.5" rx="2.5" ry="3.5" transform="rotate(90 2192.5 303.5)" fill="#D9D9D9"/>
<ellipse cx="3.23949" cy="3.11754" rx="3.23949" ry="3.11754" transform="matrix(0.968681 0.248307 -0.26971 0.962942 508.215 280.676)" fill="#D9D9D9"/>
<ellipse cx="1043.5" cy="425.5" rx="3.5" ry="3.5" transform="rotate(90 1043.5 425.5)" fill="#D9D9D9"/>
<ellipse cx="1651.5" cy="46.5" rx="3.5" ry="2.5" transform="rotate(90 1651.5 46.5)" fill="#D9D9D9"/>
<ellipse cx="3.23949" cy="3.11754" rx="3.23949" ry="3.11754" transform="matrix(0.968681 0.248307 -0.26971 0.962942 108.664 714.512)" fill="#D9D9D9"/>
<ellipse cx="981.5" cy="863" rx="3" ry="3.5" transform="rotate(90 981.5 863)" fill="#D9D9D9"/>
<ellipse cx="1437.5" cy="676.5" rx="3.5" ry="3.5" transform="rotate(90 1437.5 676.5)" fill="#D9D9D9"/>
<ellipse cx="3.23949" cy="3.11754" rx="3.23949" ry="3.11754" transform="matrix(0.968681 0.248307 -0.26971 0.962942 689.145 1075.67)" fill="#D9D9D9"/>
<ellipse cx="737.5" cy="560.5" rx="3.5" ry="2.5" transform="rotate(90 737.5 560.5)" fill="#D9D9D9"/>
<ellipse cx="1345.5" cy="181.5" rx="3.5" ry="3.5" transform="rotate(90 1345.5 181.5)" fill="#D9D9D9"/>
<ellipse cx="434.5" cy="869" rx="3" ry="3.5" transform="rotate(90 434.5 869)" fill="#D9D9D9"/>
<ellipse cx="2084.5" cy="1316.5" rx="3.5" ry="3.5" transform="rotate(90 2084.5 1316.5)" fill="#D9D9D9"/>
<ellipse cx="3.23949" cy="3.11754" rx="3.23949" ry="3.11754" transform="matrix(0.968681 0.248307 -0.26971 0.962942 398.84 1391.65)" fill="#D9D9D9"/>
<ellipse cx="542.5" cy="479.5" rx="3.5" ry="3.5" transform="rotate(90 542.5 479.5)" fill="#D9D9D9"/>
<ellipse cx="1151.5" cy="100.5" rx="3.5" ry="3.5" transform="rotate(90 1151.5 100.5)" fill="#D9D9D9"/>
<ellipse cx="3.23949" cy="3.11754" rx="3.23949" ry="3.11754" transform="matrix(0.968681 0.248307 -0.26971 0.962942 33.5703 1190.77)" fill="#D9D9D9"/>
<ellipse cx="3.5" cy="249.5" rx="2.5" ry="3.5" transform="rotate(90 3.5 249.5)" fill="#D9D9D9"/>
<circle cx="1176" cy="649" r="69" transform="rotate(90 1176 649)" fill="url(#paint1_linear_3331_423)"/>
<circle cx="967.5" cy="286.5" r="44.5" transform="rotate(90 967.5 286.5)" fill="url(#paint2_linear_3331_423)"/>
<circle cx="2395.5" cy="474.5" r="44.5" transform="rotate(90 2395.5 474.5)" fill="url(#paint3_linear_3331_423)" fill-opacity="0.31"/>
<circle cx="672" cy="753" r="69" transform="rotate(90 672 753)" fill="url(#paint4_linear_3331_423)"/>
<circle cx="230.5" cy="1231.5" r="136.5" transform="rotate(90 230.5 1231.5)" fill="url(#paint5_linear_3331_423)" fill-opacity="0.57"/>
<circle cx="1309.5" cy="1203.5" r="93.5" transform="rotate(90 1309.5 1203.5)" fill="url(#paint6_linear_3331_423)"/>
<circle cx="2272" cy="1189" r="79" transform="rotate(90 2272 1189)" fill="url(#paint7_linear_3331_423)" fill-opacity="0.48"/>
<circle cx="1951" cy="140" r="79" transform="rotate(90 1951 140)" fill="url(#paint8_linear_3331_423)" fill-opacity="0.48"/>
<ellipse cx="413.5" cy="151.5" rx="90.5" ry="90.5" transform="rotate(90 413.5 151.5)" fill="url(#paint9_linear_3331_423)" fill-opacity="0.27"/>
<circle cx="1757.5" cy="752.5" r="104.5" transform="rotate(90 1757.5 752.5)" fill="url(#paint10_linear_3331_423)"/>
<circle cx="1601" cy="501" r="157" transform="rotate(90 1601 501)" fill="url(#paint11_linear_3331_423)" fill-opacity="0.3"/>
<circle cx="1174.16" cy="903.837" r="1.5" transform="rotate(15 1174.16 903.837)" fill="#D9D9D9"/>
<ellipse cx="3.23949" cy="3.11754" rx="3.23949" ry="3.11754" transform="matrix(0.968681 0.248307 -0.26971 0.962942 2433.68 1050)" fill="#D9D9D9"/>
<ellipse cx="758.5" cy="1433" rx="3" ry="3.5" transform="rotate(90 758.5 1433)" fill="#D9D9D9"/>
<defs>
<linearGradient id="paint0_linear_3331_423" x1="1280" y1="0" x2="1280" y2="1440" gradientUnits="userSpaceOnUse">
<stop stop-color="#27262D"/>
<stop offset="1" stop-color="#161618"/>
</linearGradient>
<linearGradient id="paint1_linear_3331_423" x1="1198.5" y1="662" x2="1107" y2="580" gradientUnits="userSpaceOnUse">
<stop stop-color="#CF31FF" stop-opacity="0.02"/>
<stop offset="1" stop-color="#26252B" stop-opacity="0.05"/>
</linearGradient>
<linearGradient id="paint2_linear_3331_423" x1="982.011" y1="294.884" x2="923" y2="242" gradientUnits="userSpaceOnUse">
<stop stop-color="#CF31FF" stop-opacity="0.04"/>
<stop offset="1" stop-color="#26252B" stop-opacity="0.05"/>
</linearGradient>
<linearGradient id="paint3_linear_3331_423" x1="2410.01" y1="482.884" x2="2351" y2="430" gradientUnits="userSpaceOnUse">
<stop stop-color="#CF31FF" stop-opacity="0.04"/>
<stop offset="1" stop-color="#26252B" stop-opacity="0.05"/>
</linearGradient>
<linearGradient id="paint4_linear_3331_423" x1="694.5" y1="766" x2="603" y2="684" gradientUnits="userSpaceOnUse">
<stop stop-color="#CF31FF" stop-opacity="0.1"/>
<stop offset="1" stop-color="#26252B" stop-opacity="0.05"/>
</linearGradient>
<linearGradient id="paint5_linear_3331_423" x1="275.011" y1="1257.22" x2="94" y2="1095" gradientUnits="userSpaceOnUse">
<stop stop-color="#DF77FF" stop-opacity="0.1"/>
<stop offset="1" stop-opacity="0.05"/>
</linearGradient>
<linearGradient id="paint6_linear_3331_423" x1="1339.99" y1="1221.12" x2="1216" y2="1110" gradientUnits="userSpaceOnUse">
<stop stop-color="#CF31FF" stop-opacity="0.1"/>
<stop offset="1" stop-color="#26252B" stop-opacity="0.05"/>
</linearGradient>
<linearGradient id="paint7_linear_3331_423" x1="2297.76" y1="1203.88" x2="2193" y2="1110" gradientUnits="userSpaceOnUse">
<stop stop-color="#CF31FF" stop-opacity="0.1"/>
<stop offset="1" stop-color="#26252B" stop-opacity="0.05"/>
</linearGradient>
<linearGradient id="paint8_linear_3331_423" x1="1976.76" y1="154.884" x2="1872" y2="61" gradientUnits="userSpaceOnUse">
<stop stop-color="#A002D0" stop-opacity="0.1"/>
<stop offset="1" stop-color="#26252B" stop-opacity="0.05"/>
</linearGradient>
<linearGradient id="paint9_linear_3331_423" x1="443.011" y1="168.551" x2="323" y2="61" gradientUnits="userSpaceOnUse">
<stop stop-color="#A002D0" stop-opacity="0.1"/>
<stop offset="1" stop-color="#26252B" stop-opacity="0.05"/>
</linearGradient>
<linearGradient id="paint10_linear_3331_423" x1="1821" y1="806.5" x2="1653" y2="648" gradientUnits="userSpaceOnUse">
<stop stop-color="#29212F"/>
<stop offset="1" stop-color="#2B2A30"/>
</linearGradient>
<linearGradient id="paint11_linear_3331_423" x1="1696.4" y1="582.129" x2="1444" y2="344" gradientUnits="userSpaceOnUse">
<stop stop-color="#211E26"/>
<stop offset="1" stop-color="#232329"/>
</linearGradient>
</defs>
</svg>
