<svg width="1367" height="1024" viewBox="0 0 1367 1024" fill="none" xmlns="http://www.w3.org/2000/svg">
<rect x="1" y="1024" width="1024" height="1366" transform="rotate(-90 1 1024)" fill="url(#paint0_linear_3331_479)"/>
<circle cx="1158.97" cy="469.975" r="135.974" transform="rotate(-90 1158.97 469.975)" fill="url(#paint1_linear_3331_479)" fill-opacity="0.35"/>
<circle cx="680.198" cy="551.015" r="80.534" transform="rotate(-90 680.198 551.015)" fill="url(#paint2_linear_3331_479)"/>
<ellipse cx="1023" cy="907" rx="63" ry="63" transform="rotate(-90 1023 907)" fill="url(#paint3_linear_3331_479)" fill-opacity="0.23"/>
<circle cx="859.354" cy="218.961" r="100.959" transform="rotate(-90 859.354 218.961)" fill="url(#paint4_linear_3331_479)"/>
<circle cx="224.421" cy="373.024" r="121.968" transform="rotate(-90 224.421 373.024)" fill="url(#paint5_linear_3331_479)"/>
<circle cx="184.154" cy="723.754" r="183.244" transform="rotate(-90 184.154 723.754)" fill="url(#paint6_linear_3331_479)" fill-opacity="0.3"/>
<defs>
<linearGradient id="paint0_linear_3331_479" x1="513" y1="1024" x2="513" y2="2390" gradientUnits="userSpaceOnUse">
<stop stop-color="#DBD4FF"/>
<stop offset="1" stop-color="#EAEEFE"/>
</linearGradient>
<linearGradient id="paint1_linear_3331_479" x1="1023" y1="469.975" x2="1294.95" y2="469.975" gradientUnits="userSpaceOnUse">
<stop stop-color="#EAECFF"/>
<stop offset="1" stop-color="#BEBDFF"/>
</linearGradient>
<linearGradient id="paint2_linear_3331_479" x1="706.459" y1="566.188" x2="599.664" y2="470.481" gradientUnits="userSpaceOnUse">
<stop stop-color="#E0DDFF"/>
<stop offset="1" stop-color="#D7D4FF"/>
</linearGradient>
<linearGradient id="paint3_linear_3331_479" x1="1043.54" y1="918.87" x2="960" y2="844" gradientUnits="userSpaceOnUse">
<stop stop-color="#BCB6FE"/>
<stop offset="1" stop-color="#D7D4FF" stop-opacity="0.81"/>
</linearGradient>
<linearGradient id="paint4_linear_3331_479" x1="859.937" y1="319.92" x2="859.937" y2="118.001" gradientUnits="userSpaceOnUse">
<stop stop-color="#D4E3FF"/>
<stop offset="1" stop-color="#E3E8FF"/>
</linearGradient>
<linearGradient id="paint5_linear_3331_479" x1="298.536" y1="436.051" x2="102.453" y2="251.056" gradientUnits="userSpaceOnUse">
<stop stop-color="#DDD8FF"/>
<stop offset="1" stop-color="#CAC2FF"/>
</linearGradient>
<linearGradient id="paint6_linear_3331_479" x1="295.504" y1="818.445" x2="0.910141" y2="540.51" gradientUnits="userSpaceOnUse">
<stop stop-color="#D9C5FF"/>
<stop offset="1" stop-color="#CAC2FF"/>
</linearGradient>
</defs>
</svg>
