<svg width="2560" height="1440" viewBox="0 0 2560 1440" fill="none" xmlns="http://www.w3.org/2000/svg">
<rect y="1440" width="1440" height="2560" transform="rotate(-90 0 1440)" fill="url(#paint0_linear_3331_488)"/>
<circle cx="1971.5" cy="1003.5" r="116.5" transform="rotate(65.8254 1971.5 1003.5)" fill="url(#paint1_linear_3331_488)" fill-opacity="0.35"/>
<circle cx="2260.5" cy="479.499" r="116.5" transform="rotate(-50.1012 2260.5 479.499)" fill="url(#paint2_linear_3331_488)" fill-opacity="0.56"/>
<ellipse cx="198.501" cy="145.5" rx="87.5" ry="87.5" transform="rotate(-146.764 198.501 145.5)" fill="url(#paint3_linear_3331_488)" fill-opacity="0.53"/>
<circle cx="1163.5" cy="140.5" r="116.5" transform="rotate(-90 1163.5 140.5)" fill="url(#paint4_linear_3331_488)" fill-opacity="0.18"/>
<circle cx="1144" cy="818" r="69" transform="rotate(-90 1144 818)" fill="url(#paint5_linear_3331_488)"/>
<circle cx="1567.5" cy="353.5" r="86.5" transform="rotate(-51.9097 1567.5 353.5)" fill="url(#paint6_linear_3331_488)" fill-opacity="0.26"/>
<circle cx="684.5" cy="467.5" r="104.5" transform="rotate(-90 684.5 467.5)" fill="url(#paint7_linear_3331_488)"/>
<circle cx="385" cy="1044" r="157" transform="rotate(-90 385 1044)" fill="url(#paint8_linear_3331_488)"/>
<defs>
<linearGradient id="paint0_linear_3331_488" x1="720" y1="1440" x2="720" y2="4000" gradientUnits="userSpaceOnUse">
<stop stop-color="#DBD4FF"/>
<stop offset="1" stop-color="#EAEEFE"/>
</linearGradient>
<linearGradient id="paint1_linear_3331_488" x1="1855" y1="1003.5" x2="2088" y2="1003.5" gradientUnits="userSpaceOnUse">
<stop stop-color="#EAECFF"/>
<stop offset="1" stop-color="#F7B1FE" stop-opacity="0.73"/>
</linearGradient>
<linearGradient id="paint2_linear_3331_488" x1="2144" y1="479.499" x2="2377" y2="479.499" gradientUnits="userSpaceOnUse">
<stop stop-color="#EAECFF" stop-opacity="0.64"/>
<stop offset="1" stop-color="#C4EBFF"/>
</linearGradient>
<linearGradient id="paint3_linear_3331_488" x1="111.001" y1="145.5" x2="286.001" y2="145.5" gradientUnits="userSpaceOnUse">
<stop stop-color="#EAECFF"/>
<stop offset="1" stop-color="#D3B1FE"/>
</linearGradient>
<linearGradient id="paint4_linear_3331_488" x1="1047" y1="140.5" x2="1280" y2="140.5" gradientUnits="userSpaceOnUse">
<stop stop-color="#EAECFF"/>
<stop offset="1" stop-color="#B2B1FE"/>
</linearGradient>
<linearGradient id="paint5_linear_3331_488" x1="1166.5" y1="831" x2="1075" y2="749" gradientUnits="userSpaceOnUse">
<stop stop-color="#E0DDFF"/>
<stop offset="1" stop-color="#D7D4FF"/>
</linearGradient>
<linearGradient id="paint6_linear_3331_488" x1="1568" y1="440" x2="1568" y2="267" gradientUnits="userSpaceOnUse">
<stop stop-color="#AAC6FA"/>
<stop offset="1" stop-color="#E3E8FF"/>
</linearGradient>
<linearGradient id="paint7_linear_3331_488" x1="748" y1="521.5" x2="580" y2="363" gradientUnits="userSpaceOnUse">
<stop stop-color="#DDD8FF"/>
<stop offset="1" stop-color="#CAC2FF"/>
</linearGradient>
<linearGradient id="paint8_linear_3331_488" x1="480.402" y1="1125.13" x2="228" y2="887" gradientUnits="userSpaceOnUse">
<stop stop-color="#D9C5FF"/>
<stop offset="1" stop-color="#CAC2FF"/>
</linearGradient>
</defs>
</svg>
