<svg width="720" height="1280" viewBox="0 0 720 1280" fill="none" xmlns="http://www.w3.org/2000/svg">
<rect width="720" height="1280" fill="url(#paint0_linear_3330_339)"/>
<circle cx="317" cy="644" r="69" fill="url(#paint1_linear_3330_339)"/>
<circle cx="75.5" cy="902.5" r="44.5" fill="url(#paint2_linear_3330_339)"/>
<circle cx="544" cy="1083" r="69" fill="url(#paint3_linear_3330_339)"/>
<circle cx="613.5" cy="733.5" r="93.5" fill="url(#paint4_linear_3330_339)"/>
<circle cx="469.5" cy="253.5" r="104.5" fill="url(#paint5_linear_3330_339)"/>
<circle cx="169" cy="219" r="157" fill="url(#paint6_linear_3330_339)" fill-opacity="0.3"/>
<circle cx="571.837" cy="645.837" r="1.5" transform="rotate(-75 571.837 645.837)" fill="#D9D9D9"/>
<circle cx="228.5" cy="461.5" r="1.5" fill="#D9D9D9"/>
<circle cx="45.5" cy="180.5" r="1.5" fill="#D9D9D9"/>
<circle cx="76.5871" cy="1099.79" r="1.5" transform="rotate(-75 76.5871 1099.79)" fill="#D9D9D9"/>
<circle cx="453.5" cy="573.5" r="1.5" fill="#D9D9D9"/>
<circle cx="270.5" cy="292.5" r="1.5" fill="#D9D9D9"/>
<circle cx="395.5" cy="377.5" r="1.5" fill="#D9D9D9"/>
<circle cx="212.5" cy="96.5" r="1.5" fill="#D9D9D9"/>
<circle cx="38.6731" cy="916.74" r="1.5" transform="rotate(-75 38.6731 916.74)" fill="#D9D9D9"/>
<circle cx="518.5" cy="338.5" r="1.5" fill="#D9D9D9"/>
<circle cx="335.5" cy="57.5" r="1.5" fill="#D9D9D9"/>
<circle cx="32.8371" cy="787.838" r="1.5" transform="rotate(-75 32.8371 787.838)" fill="#D9D9D9"/>
<circle cx="158.5" cy="225.5" r="1.5" fill="#D9D9D9"/>
<circle cx="149.302" cy="1002.29" r="1.5" transform="rotate(-75 149.302 1002.29)" fill="#D9D9D9"/>
<circle cx="217.5" cy="756.5" r="1.5" fill="#D9D9D9"/>
<circle cx="34.5" cy="475.5" r="1.5" fill="#D9D9D9"/>
<circle cx="358.689" cy="1186.77" r="1.5" transform="rotate(-75 358.689 1186.77)" fill="#D9D9D9"/>
<circle cx="428.5" cy="784.5" r="1.5" fill="#D9D9D9"/>
<circle cx="338.5" cy="574.5" r="1.5" fill="#D9D9D9"/>
<circle cx="532.997" cy="918.749" r="1.5" transform="rotate(-75 532.997 918.749)" fill="#D9D9D9"/>
<circle cx="282.5" cy="897.5" r="1.5" fill="#D9D9D9"/>
<circle cx="99.5" cy="616.5" r="1.5" fill="#D9D9D9"/>
<circle cx="431.5" cy="1037.5" r="1.5" fill="#D9D9D9"/>
<circle cx="647.5" cy="275.5" r="1.5" fill="#D9D9D9"/>
<circle cx="685.501" cy="1052.79" r="1.5" transform="rotate(-75 685.501 1052.79)" fill="#D9D9D9"/>
<circle cx="243.5" cy="987.5" r="1.5" fill="#D9D9D9"/>
<circle cx="60.5" cy="706.5" r="1.5" fill="#D9D9D9"/>
<circle cx="588.548" cy="1221.44" r="1.5" transform="rotate(-75 588.548 1221.44)" fill="#D9D9D9"/>
<circle cx="132.5" cy="1236.5" r="1.5" fill="#D9D9D9"/>
<circle cx="591.837" cy="57.8368" r="1.5" transform="rotate(-75 591.837 57.8368)" fill="#D9D9D9"/>
<defs>
<linearGradient id="paint0_linear_3330_339" x1="360" y1="0" x2="360" y2="1280" gradientUnits="userSpaceOnUse">
<stop stop-color="#27262D"/>
<stop offset="1" stop-color="#161618"/>
</linearGradient>
<linearGradient id="paint1_linear_3330_339" x1="339.5" y1="657" x2="248" y2="575" gradientUnits="userSpaceOnUse">
<stop stop-color="#CF31FF" stop-opacity="0.02"/>
<stop offset="1" stop-color="#26252B" stop-opacity="0.05"/>
</linearGradient>
<linearGradient id="paint2_linear_3330_339" x1="90.0109" y1="910.884" x2="31" y2="858" gradientUnits="userSpaceOnUse">
<stop stop-color="#CF31FF" stop-opacity="0.04"/>
<stop offset="1" stop-color="#26252B" stop-opacity="0.05"/>
</linearGradient>
<linearGradient id="paint3_linear_3330_339" x1="566.5" y1="1096" x2="475" y2="1014" gradientUnits="userSpaceOnUse">
<stop stop-color="#CF31FF" stop-opacity="0.1"/>
<stop offset="1" stop-color="#26252B" stop-opacity="0.05"/>
</linearGradient>
<linearGradient id="paint4_linear_3330_339" x1="643.989" y1="751.116" x2="520" y2="640" gradientUnits="userSpaceOnUse">
<stop stop-color="#CF31FF" stop-opacity="0.1"/>
<stop offset="1" stop-color="#26252B" stop-opacity="0.05"/>
</linearGradient>
<linearGradient id="paint5_linear_3330_339" x1="533" y1="307.5" x2="365" y2="149" gradientUnits="userSpaceOnUse">
<stop stop-color="#29212F"/>
<stop offset="1" stop-color="#2B2A30"/>
</linearGradient>
<linearGradient id="paint6_linear_3330_339" x1="264.402" y1="300.129" x2="12" y2="62" gradientUnits="userSpaceOnUse">
<stop stop-color="#211E26"/>
<stop offset="1" stop-color="#232329"/>
</linearGradient>
</defs>
</svg>
