<svg width="1366" height="1025" viewBox="0 0 1366 1025" fill="none" xmlns="http://www.w3.org/2000/svg">
<rect width="1366" height="1024" fill="url(#paint0_linear_3331_381)"/>
<ellipse cx="840.5" cy="327" rx="2" ry="1.5" transform="rotate(90 840.5 327)" fill="#D9D9D9"/>
<ellipse cx="1145.5" cy="61" rx="2" ry="1.5" transform="rotate(90 1145.5 61)" fill="#D9D9D9"/>
<ellipse cx="1.66775" cy="2.15123" rx="1.66775" ry="2.15123" transform="matrix(0.9408 0.338963 -0.195431 0.980717 148.516 103.371)" fill="#D9D9D9"/>
<ellipse cx="758.5" cy="737" rx="2" ry="2.5" transform="rotate(90 758.5 737)" fill="#D9D9D9"/>
<ellipse cx="467.5" cy="915" rx="2" ry="2.5" transform="rotate(90 467.5 915)" fill="#D9D9D9"/>
<ellipse cx="579.5" cy="806" rx="2" ry="2.5" transform="rotate(90 579.5 806)" fill="#D9D9D9"/>
<ellipse cx="1023.5" cy="388.5" rx="2.5" ry="1.5" transform="rotate(90 1023.5 388.5)" fill="#D9D9D9"/>
<ellipse cx="932.5" cy="570.5" rx="2.5" ry="1.5" transform="rotate(90 932.5 570.5)" fill="#D9D9D9"/>
<ellipse cx="1235.5" cy="304" rx="2" ry="1.5" transform="rotate(90 1235.5 304)" fill="#D9D9D9"/>
<ellipse cx="1.66775" cy="2.15123" rx="1.66775" ry="2.15123" transform="matrix(0.9408 0.338963 -0.195431 0.980717 346.746 48.1641)" fill="#D9D9D9"/>
<ellipse cx="973.5" cy="749.5" rx="2.5" ry="1.5" transform="rotate(90 973.5 749.5)" fill="#D9D9D9"/>
<ellipse cx="1278.5" cy="483" rx="2" ry="1.5" transform="rotate(90 1278.5 483)" fill="#D9D9D9"/>
<ellipse cx="1.66775" cy="2.15123" rx="1.66775" ry="2.15123" transform="matrix(0.9408 0.338963 -0.195431 0.980717 486.336 39.666)" fill="#D9D9D9"/>
<ellipse cx="1096.5" cy="225.5" rx="2.5" ry="1.5" transform="rotate(90 1096.5 225.5)" fill="#D9D9D9"/>
<ellipse cx="1.66775" cy="2.15123" rx="1.66775" ry="2.15123" transform="matrix(0.9408 0.338963 -0.195431 0.980717 254.105 209.252)" fill="#D9D9D9"/>
<ellipse cx="521.5" cy="311" rx="2" ry="1.5" transform="rotate(90 521.5 311)" fill="#D9D9D9"/>
<ellipse cx="826.5" cy="45" rx="2" ry="1.5" transform="rotate(90 826.5 45)" fill="#D9D9D9"/>
<ellipse cx="1.66775" cy="2.15123" rx="1.66775" ry="2.15123" transform="matrix(0.9408 0.338963 -0.195431 0.980717 54.3281 514.144)" fill="#D9D9D9"/>
<ellipse cx="491.5" cy="618.5" rx="2.5" ry="1.5" transform="rotate(90 491.5 618.5)" fill="#D9D9D9"/>
<ellipse cx="718.5" cy="487.5" rx="2.5" ry="2.5" transform="rotate(90 718.5 487.5)" fill="#D9D9D9"/>
<ellipse cx="1.66775" cy="2.15123" rx="1.66775" ry="2.15123" transform="matrix(0.9408 0.338963 -0.195431 0.980717 344.574 767.957)" fill="#D9D9D9"/>
<ellipse cx="368.5" cy="406" rx="2" ry="1.5" transform="rotate(90 368.5 406)" fill="#D9D9D9"/>
<ellipse cx="673.5" cy="139.5" rx="2.5" ry="1.5" transform="rotate(90 673.5 139.5)" fill="#D9D9D9"/>
<ellipse cx="216.5" cy="623" rx="2" ry="1.5" transform="rotate(90 216.5 623)" fill="#D9D9D9"/>
<ellipse cx="1042.5" cy="937.5" rx="2.5" ry="1.5" transform="rotate(90 1042.5 937.5)" fill="#D9D9D9"/>
<ellipse cx="1.66775" cy="2.15123" rx="1.66775" ry="2.15123" transform="matrix(0.9408 0.338963 -0.195431 0.980717 199.418 990.021)" fill="#D9D9D9"/>
<ellipse cx="270.5" cy="349" rx="2" ry="1.5" transform="rotate(90 270.5 349)" fill="#D9D9D9"/>
<ellipse cx="575.5" cy="82.5" rx="2.5" ry="1.5" transform="rotate(90 575.5 82.5)" fill="#D9D9D9"/>
<ellipse cx="1.66775" cy="2.15123" rx="1.66775" ry="2.15123" transform="matrix(0.9408 0.338963 -0.195431 0.980717 16.7812 848.846)" fill="#D9D9D9"/>
<ellipse cx="8.5" cy="190.5" rx="2.5" ry="1.5" transform="rotate(90 8.5 190.5)" fill="#D9D9D9"/>
<ellipse cx="1.66775" cy="2.15123" rx="1.66775" ry="2.15123" transform="matrix(0.9408 0.338963 -0.195431 0.980717 1276.86 853.635)" fill="#D9D9D9"/>
<circle cx="784" cy="306" r="69" transform="rotate(90 784 306)" fill="url(#paint1_linear_3331_381)"/>
<circle cx="525.5" cy="64.5" r="44.5" transform="rotate(90 525.5 64.5)" fill="url(#paint2_linear_3331_381)"/>
<circle cx="345" cy="533" r="69" transform="rotate(90 345 533)" fill="url(#paint3_linear_3331_381)"/>
<ellipse cx="231.001" cy="853" rx="45" ry="45" transform="rotate(34.738 231.001 853)" fill="url(#paint4_linear_3331_381)" fill-opacity="0.64"/>
<circle cx="663.5" cy="695.5" r="93.5" transform="rotate(90 663.5 695.5)" fill="url(#paint5_linear_3331_381)"/>
<circle cx="1209.5" cy="611.5" r="104.5" transform="rotate(90 1209.5 611.5)" fill="url(#paint6_linear_3331_381)"/>
<circle cx="1209" cy="158" r="157" transform="rotate(90 1209 158)" fill="url(#paint7_linear_3331_381)" fill-opacity="0.3"/>
<circle cx="782.162" cy="560.837" r="1.5" transform="rotate(15 782.162 560.837)" fill="#D9D9D9"/>
<defs>
<linearGradient id="paint0_linear_3331_381" x1="683" y1="0" x2="683" y2="1024" gradientUnits="userSpaceOnUse">
<stop stop-color="#27262D"/>
<stop offset="1" stop-color="#161618"/>
</linearGradient>
<linearGradient id="paint1_linear_3331_381" x1="806.5" y1="319" x2="715" y2="237" gradientUnits="userSpaceOnUse">
<stop stop-color="#CF31FF" stop-opacity="0.02"/>
<stop offset="1" stop-color="#26252B" stop-opacity="0.05"/>
</linearGradient>
<linearGradient id="paint2_linear_3331_381" x1="540.011" y1="72.8841" x2="481" y2="20" gradientUnits="userSpaceOnUse">
<stop stop-color="#CF31FF" stop-opacity="0.04"/>
<stop offset="1" stop-color="#26252B" stop-opacity="0.05"/>
</linearGradient>
<linearGradient id="paint3_linear_3331_381" x1="367.5" y1="546" x2="276" y2="464" gradientUnits="userSpaceOnUse">
<stop stop-color="#CF31FF" stop-opacity="0.1"/>
<stop offset="1" stop-color="#26252B" stop-opacity="0.05"/>
</linearGradient>
<linearGradient id="paint4_linear_3331_381" x1="245.675" y1="861.478" x2="186.001" y2="807.999" gradientUnits="userSpaceOnUse">
<stop stop-color="#CF31FF" stop-opacity="0.1"/>
<stop offset="1" stop-color="#26252B" stop-opacity="0.05"/>
</linearGradient>
<linearGradient id="paint5_linear_3331_381" x1="693.989" y1="713.116" x2="570" y2="602" gradientUnits="userSpaceOnUse">
<stop stop-color="#CF31FF" stop-opacity="0.1"/>
<stop offset="1" stop-color="#26252B" stop-opacity="0.05"/>
</linearGradient>
<linearGradient id="paint6_linear_3331_381" x1="1273" y1="665.5" x2="1105" y2="507" gradientUnits="userSpaceOnUse">
<stop stop-color="#29212F"/>
<stop offset="1" stop-color="#2B2A30"/>
</linearGradient>
<linearGradient id="paint7_linear_3331_381" x1="1304.4" y1="239.129" x2="1052" y2="0.999985" gradientUnits="userSpaceOnUse">
<stop stop-color="#211E26"/>
<stop offset="1" stop-color="#232329"/>
</linearGradient>
</defs>
</svg>
