<svg width="20" height="16" viewBox="0 0 20 16" fill="none" xmlns="http://www.w3.org/2000/svg">
<path d="M1.27498 14.036C0.974984 14.048 0.746984 13.97 0.590984 13.802C0.434984 13.622 0.350984 13.418 0.338984 13.19C0.338984 12.95 0.410984 12.734 0.554984 12.542C0.698984 12.35 0.914984 12.248 1.20298 12.236L1.59898 12.218C1.59898 8.486 1.58698 5.384 1.56298 2.912H1.27498C0.974984 2.912 0.752984 2.822 0.608984 2.642C0.464984 2.462 0.392984 2.252 0.392984 2.012C0.404984 1.772 0.488984 1.562 0.644984 1.382C0.800984 1.202 1.02298 1.112 1.31098 1.112C1.92298 1.124 2.66698 1.136 3.54298 1.148C3.83098 1.148 4.04698 1.238 4.19098 1.418C4.34698 1.598 4.41898 1.808 4.40698 2.048C4.40698 2.288 4.32898 2.498 4.17298 2.678C4.02898 2.858 3.80698 2.948 3.50698 2.948H3.36298C3.38698 5.408 3.39898 8.492 3.39898 12.2H3.75898C4.05898 12.2 4.28098 12.29 4.42498 12.47C4.58098 12.65 4.65898 12.86 4.65898 13.1C4.65898 13.34 4.58098 13.55 4.42498 13.73C4.28098 13.91 4.05898 14 3.75898 14C2.83498 14 2.00698 14.012 1.27498 14.036ZM17.9353 14.9C16.8913 14.552 15.9073 14.066 14.9833 13.442C14.7313 13.562 14.4553 13.676 14.1553 13.784C12.7273 14.3 11.1973 14.168 9.56525 13.388C8.86925 13.064 8.26925 12.638 7.76525 12.11C7.27325 11.57 6.88325 10.976 6.59525 10.328C6.31925 9.668 6.15725 8.996 6.10925 8.312C6.06125 7.628 6.10925 6.938 6.25325 6.242C6.40925 5.534 6.64925 4.862 6.97325 4.226C7.30925 3.578 7.72925 3.008 8.23325 2.516C8.35325 2.42 8.47925 2.318 8.61125 2.21C8.73125 2.114 8.86925 2.024 9.02525 1.94L9.40325 1.706C9.49925 1.646 9.64325 1.574 9.83525 1.49L10.2313 1.346C10.2673 1.322 10.3393 1.286 10.4473 1.238C10.5673 1.19 10.6753 1.148 10.7713 1.112C10.8793 1.064 10.9393 1.04 10.9513 1.04C11.2513 0.92 11.5333 0.95 11.7973 1.13C12.7093 0.95 13.5613 0.985999 14.3533 1.238C15.1453 1.49 15.8353 1.922 16.4233 2.534C17.0713 3.194 17.5633 4.004 17.8993 4.964C18.2473 5.912 18.4153 6.908 18.4033 7.952C18.3913 8.804 18.2833 9.59 18.0793 10.31C17.8753 11.018 17.4853 11.66 16.9093 12.236C16.8373 12.284 16.7653 12.344 16.6933 12.416C17.2693 12.74 17.8753 13.016 18.5113 13.244C18.7393 13.328 18.9073 13.478 19.0153 13.694C19.1233 13.922 19.1353 14.144 19.0513 14.36C18.9673 14.576 18.8173 14.738 18.6013 14.846C18.3973 14.966 18.1753 14.984 17.9353 14.9ZM13.3453 12.2C13.0933 11.96 12.8353 11.702 12.5713 11.426C12.3553 11.246 12.2533 11.042 12.2653 10.814C12.2893 10.586 12.3853 10.388 12.5533 10.22C12.7213 10.04 12.9193 9.938 13.1473 9.914C13.3873 9.89 13.6093 9.98 13.8133 10.184C14.2693 10.628 14.7133 11.018 15.1453 11.354C15.3493 11.234 15.5233 11.102 15.6673 10.958C16.0153 10.61 16.2553 10.196 16.3873 9.716C16.5313 9.224 16.6093 8.624 16.6213 7.916C16.6333 7.088 16.5073 6.314 16.2433 5.594C15.9913 4.862 15.6313 4.256 15.1633 3.776C14.1553 2.756 12.8833 2.522 11.3473 3.074C11.1193 3.158 10.8973 3.152 10.6813 3.056C10.1413 3.296 9.73925 3.542 9.47525 3.794C8.68325 4.562 8.17925 5.486 7.96325 6.566C7.81925 7.286 7.81925 7.988 7.96325 8.672C8.10725 9.356 8.38325 9.974 8.79125 10.526C9.19925 11.078 9.72125 11.504 10.3573 11.804C11.4493 12.32 12.4453 12.452 13.3453 12.2Z" fill="#05EFD4"/>
</svg>
