<svg width="27" height="27" viewBox="0 0 27 27" fill="none" xmlns="http://www.w3.org/2000/svg">
<line x1="14.582" y1="20.8447" x2="14.582" y2="9.61273" stroke="white"/>
<line y1="-0.5" x2="5.73437" y2="-0.5" transform="matrix(-0.767019 -0.641625 0.64395 -0.765068 13.8711 20.8506)" stroke="white"/>
<path d="M3.26141 10.2301L2.50123 7.50116" stroke="white"/>
<path d="M4.5 10.5L5.40937 9.15697" stroke="white"/>
<path d="M7.0625 15.7109L4.46711 12.7505" stroke="white"/>
<path d="M6.74219 16.7402L4.14219 16.7402" stroke="white"/>
<path d="M19.9585 18.3621L15.6223 21.6" stroke="white"/>
<path d="M23.1834 14.6797L21.635 16.7031" stroke="white"/>
<path d="M18.6588 9.81281L14.5754 12.0403" stroke="white"/>
<path d="M18.8499 3.47034L14.8363 5.22702" stroke="white"/>
<path d="M24.3658 6.69464L21.03 8.49184" stroke="white"/>
<path d="M14.4983 15.9997L11.7775 14.2548" stroke="white"/>
<path d="M10.2832 12.2123L9.95349 10.9289" stroke="white"/>
<path d="M13.2339 7.77779L9.28731 5.13498" stroke="white"/>
<path d="M23.9961 17.8203L22.2628 17.8203" stroke="white"/>
<path d="M20.2673 16.6254L19.6229 15.6245" stroke="white"/>
<line x1="14.582" y1="6.80371" x2="14.582" y2="3.02371" stroke="white"/>
<line x1="14.582" y1="27" x2="14.582" y2="23.436" stroke="white"/>
<line x1="4.24609" y1="26.5" x2="23.7461" y2="26.5" stroke="white"/>
<path d="M5.04609 11.62C5.04609 12.4037 4.40868 13.04 3.62109 13.04C2.83351 13.04 2.19609 12.4037 2.19609 11.62C2.19609 10.8363 2.83351 10.2 3.62109 10.2C4.40868 10.2 5.04609 10.8363 5.04609 11.62Z" stroke="white" stroke-width="0.4"/>
<path d="M7.55 8.12C7.55 8.90366 6.91259 9.54 6.125 9.54C5.33741 9.54 4.7 8.90366 4.7 8.12C4.7 7.33634 5.33741 6.7 6.125 6.7C6.91259 6.7 7.55 7.33634 7.55 8.12Z" stroke="white" stroke-width="0.4"/>
<path d="M3.65156 6.3202C3.65156 7.10386 3.01415 7.7402 2.22656 7.7402C1.43898 7.7402 0.801563 7.10386 0.801563 6.3202C0.801563 5.53653 1.43898 4.9002 2.22656 4.9002C3.01415 4.9002 3.65156 5.53653 3.65156 6.3202Z" stroke="white" stroke-width="0.4"/>
<path d="M4.04609 16.7391C4.04609 17.5228 3.40868 18.1591 2.62109 18.1591C1.83351 18.1591 1.19609 17.5228 1.19609 16.7391C1.19609 15.9555 1.83351 15.3191 2.62109 15.3191C3.40868 15.3191 4.04609 15.9555 4.04609 16.7391Z" stroke="white" stroke-width="0.4"/>
<path d="M9.46406 16.7391C9.46406 17.5228 8.82665 18.1591 8.03906 18.1591C7.25148 18.1591 6.61406 17.5228 6.61406 16.7391C6.61406 15.9555 7.25148 15.3191 8.03906 15.3191C8.82665 15.3191 9.46406 15.9555 9.46406 16.7391Z" stroke="white" stroke-width="0.4"/>
<path d="M12.0461 13.62C12.0461 14.4037 11.4087 15.04 10.6211 15.04C9.83351 15.04 9.19609 14.4037 9.19609 13.62C9.19609 12.8363 9.83351 12.2 10.6211 12.2C11.4087 12.2 12.0461 12.8363 12.0461 13.62Z" stroke="white" stroke-width="0.4"/>
<path d="M11.05 9.62C11.05 10.4037 10.4126 11.04 9.625 11.04C8.83741 11.04 8.2 10.4037 8.2 9.62C8.2 8.83634 8.83741 8.2 9.625 8.2C10.4126 8.2 11.05 8.83634 11.05 9.62Z" stroke="white" stroke-width="0.4"/>
<path d="M9.55 4.3202C9.55 5.10386 8.91259 5.7402 8.125 5.7402C7.33741 5.7402 6.7 5.10386 6.7 4.3202C6.7 3.53653 7.33741 2.9002 8.125 2.9002C8.91259 2.9002 9.55 3.53653 9.55 4.3202Z" stroke="white" stroke-width="0.4"/>
<path d="M15.9141 1.62C15.9141 2.3759 15.2992 2.99 14.5391 2.99C13.7789 2.99 13.1641 2.3759 13.1641 1.62C13.1641 0.864096 13.7789 0.25 14.5391 0.25C15.2992 0.25 15.9141 0.864096 15.9141 1.62Z" stroke="white" stroke-width="0.5"/>
<path d="M21.382 2.70008C21.382 3.48374 20.7446 4.12008 19.957 4.12008C19.1694 4.12008 18.532 3.48374 18.532 2.70008C18.532 1.91641 19.1694 1.28008 19.957 1.28008C20.7446 1.28008 21.382 1.91641 21.382 2.70008Z" stroke="white" stroke-width="0.4"/>
<path d="M26.7961 5.94031C26.7961 6.72398 26.1587 7.36031 25.3711 7.36031C24.5835 7.36031 23.9461 6.72398 23.9461 5.94031C23.9461 5.15665 24.5835 4.52031 25.3711 4.52031C26.1587 4.52031 26.7961 5.15665 26.7961 5.94031Z" stroke="white" stroke-width="0.4"/>
<path d="M21.382 9.18055C21.382 9.96421 20.7446 10.6005 19.957 10.6005C19.1694 10.6005 18.532 9.96421 18.532 9.18055C18.532 8.39688 19.1694 7.76055 19.957 7.76055C20.7446 7.76055 21.382 8.39688 21.382 9.18055Z" stroke="white" stroke-width="0.4"/>
<path d="M15.9641 8.10047C15.9641 8.88413 15.3266 9.52047 14.5391 9.52047C13.7515 9.52047 13.1141 8.88413 13.1141 8.10047C13.1141 7.31681 13.7515 6.68047 14.5391 6.68047C15.3266 6.68047 15.9641 7.31681 15.9641 8.10047Z" stroke="white" stroke-width="0.4"/>
<path d="M20.2961 14.5809C20.2961 15.3646 19.6587 16.0009 18.8711 16.0009C18.0835 16.0009 17.4461 15.3646 17.4461 14.5809C17.4461 13.7973 18.0835 13.1609 18.8711 13.1609C19.6587 13.1609 20.2961 13.7973 20.2961 14.5809Z" stroke="white" stroke-width="0.4"/>
<path d="M22.4641 17.8192C22.4641 18.6029 21.8266 19.2392 21.0391 19.2392C20.2515 19.2392 19.6141 18.6029 19.6141 17.8192C19.6141 17.0356 20.2515 16.3992 21.0391 16.3992C21.8266 16.3992 22.4641 17.0356 22.4641 17.8192Z" stroke="white" stroke-width="0.4"/>
<path d="M15.9641 22.1395C15.9641 22.9232 15.3266 23.5595 14.5391 23.5595C13.7515 23.5595 13.1141 22.9232 13.1141 22.1395C13.1141 21.3559 13.7515 20.7195 14.5391 20.7195C15.3266 20.7195 15.9641 21.3559 15.9641 22.1395Z" stroke="white" stroke-width="0.4"/>
<path d="M25.1711 13.5009C25.1711 14.2845 24.5337 14.9209 23.7461 14.9209C22.9585 14.9209 22.3211 14.2845 22.3211 13.5009C22.3211 12.7172 22.9585 12.0809 23.7461 12.0809C24.5337 12.0809 25.1711 12.7172 25.1711 13.5009Z" stroke="white" stroke-width="0.4"/>
<path d="M26.7961 17.8192C26.7961 18.6029 26.1587 19.2392 25.3711 19.2392C24.5835 19.2392 23.9461 18.6029 23.9461 17.8192C23.9461 17.0356 24.5835 16.3992 25.3711 16.3992C26.1587 16.3992 26.7961 17.0356 26.7961 17.8192Z" stroke="white" stroke-width="0.4"/>
</svg>
