<svg width="390" height="229" viewBox="0 0 390 229" fill="none" xmlns="http://www.w3.org/2000/svg">
<rect width="390" height="229" fill="url(#paint0_linear_3272_415)"/>
<rect x="0.0597243" y="0.128079" width="4.78809" height="14.7387" transform="matrix(0.939938 0.341346 -0.342695 0.939447 38.0983 209.083)" stroke="black" stroke-width="0.2"/>
<rect x="0.0597243" y="0.128079" width="4.78809" height="14.7387" transform="matrix(0.939938 0.341346 -0.342695 0.939447 117.928 211.074)" stroke="black" stroke-width="0.2"/>
<rect x="0.0597243" y="0.128079" width="4.78809" height="14.7387" transform="matrix(0.939938 0.341346 -0.342695 0.939447 202.747 211.074)" stroke="black" stroke-width="0.2"/>
<rect x="0.0597243" y="0.128079" width="4.78809" height="14.7387" transform="matrix(0.939938 0.341346 -0.342695 0.939447 288.565 211.074)" stroke="black" stroke-width="0.2"/>
<rect x="0.0597243" y="0.128079" width="4.78809" height="14.7387" transform="matrix(0.939938 0.341346 -0.342695 0.939447 370.391 211.074)" stroke="black" stroke-width="0.2"/>
<rect x="0.0597243" y="0.128079" width="4.78809" height="14.7387" transform="matrix(0.939938 0.341346 -0.342695 0.939447 34.1061 139.387)" stroke="black" stroke-width="0.2"/>
<rect x="0.0597243" y="0.128079" width="4.78809" height="14.7387" transform="matrix(0.939938 0.341346 -0.342695 0.939447 113.936 141.379)" stroke="black" stroke-width="0.2"/>
<rect x="0.0597243" y="0.128079" width="4.78809" height="14.7387" transform="matrix(0.939938 0.341346 -0.342695 0.939447 198.756 141.379)" stroke="black" stroke-width="0.2"/>
<rect x="0.0597243" y="0.128079" width="4.78809" height="14.7387" transform="matrix(0.939938 0.341346 -0.342695 0.939447 284.573 141.379)" stroke="black" stroke-width="0.2"/>
<rect x="0.0597243" y="0.128079" width="4.78809" height="14.7387" transform="matrix(0.939938 0.341346 -0.342695 0.939447 366.399 141.379)" stroke="black" stroke-width="0.2"/>
<rect x="0.0597243" y="0.128079" width="4.78809" height="14.7387" transform="matrix(0.939938 0.341346 -0.342695 0.939447 33.108 69.6917)" stroke="black" stroke-width="0.2"/>
<rect x="0.0597243" y="0.128079" width="4.78809" height="14.7387" transform="matrix(0.939938 0.341346 -0.342695 0.939447 112.938 71.683)" stroke="black" stroke-width="0.2"/>
<rect x="0.0597243" y="0.128079" width="4.78809" height="14.7387" transform="matrix(0.939938 0.341346 -0.342695 0.939447 197.758 71.683)" stroke="black" stroke-width="0.2"/>
<rect x="0.0597243" y="0.128079" width="4.78809" height="14.7387" transform="matrix(0.939938 0.341346 -0.342695 0.939447 283.575 71.683)" stroke="black" stroke-width="0.2"/>
<rect x="0.0597243" y="0.128079" width="4.78809" height="14.7387" transform="matrix(0.939938 0.341346 -0.342695 0.939447 365.401 71.683)" stroke="black" stroke-width="0.2"/>
<rect x="0.0597243" y="0.128079" width="4.78809" height="14.7387" transform="matrix(0.939938 0.341346 -0.342695 0.939447 44.0846 31.8569)" stroke="black" stroke-width="0.2"/>
<rect x="0.0597243" y="0.128079" width="4.78809" height="14.7387" transform="matrix(0.939938 0.341346 -0.342695 0.939447 123.915 33.8482)" stroke="black" stroke-width="0.2"/>
<rect x="0.0597243" y="0.128079" width="4.78809" height="14.7387" transform="matrix(0.939938 0.341346 -0.342695 0.939447 208.735 33.8482)" stroke="black" stroke-width="0.2"/>
<rect x="0.0597243" y="0.128079" width="4.78809" height="14.7387" transform="matrix(0.939938 0.341346 -0.342695 0.939447 294.551 33.8482)" stroke="black" stroke-width="0.2"/>
<rect x="0.0597243" y="0.128079" width="4.78809" height="14.7387" transform="matrix(0.939938 0.341346 -0.342695 0.939447 376.378 33.8482)" stroke="black" stroke-width="0.2"/>
<rect x="0.0597243" y="0.128079" width="4.78809" height="14.7387" transform="matrix(0.939938 0.341346 -0.342695 0.939447 28.1178 7.96128)" stroke="black" stroke-width="0.2"/>
<rect x="0.0597243" y="0.128079" width="4.78809" height="14.7387" transform="matrix(0.939938 0.341346 -0.342695 0.939447 107.95 9.95258)" stroke="black" stroke-width="0.2"/>
<rect x="0.0597243" y="0.128079" width="4.78809" height="14.7387" transform="matrix(0.939938 0.341346 -0.342695 0.939447 192.768 9.95258)" stroke="black" stroke-width="0.2"/>
<rect x="0.0597243" y="0.128079" width="4.78809" height="14.7387" transform="matrix(0.939938 0.341346 -0.342695 0.939447 278.587 9.95258)" stroke="black" stroke-width="0.2"/>
<rect x="0.0597243" y="0.128079" width="4.78809" height="14.7387" transform="matrix(0.939938 0.341346 -0.342695 0.939447 360.413 9.95258)" stroke="black" stroke-width="0.2"/>
<rect x="0.0597243" y="0.128079" width="4.78809" height="14.7387" transform="matrix(0.939938 0.341346 -0.342695 0.939447 10.1569 209.083)" stroke="black" stroke-width="0.2"/>
<rect x="0.0597243" y="0.128079" width="4.78809" height="14.7387" transform="matrix(0.939938 0.341346 -0.342695 0.939447 89.9869 211.074)" stroke="black" stroke-width="0.2"/>
<rect x="0.0597243" y="0.128079" width="4.78809" height="14.7387" transform="matrix(0.939938 0.341346 -0.342695 0.939447 65.0397 199.126)" stroke="black" stroke-width="0.2"/>
<rect x="0.0597243" y="0.128079" width="4.78809" height="14.7387" transform="matrix(0.939938 0.341346 -0.342695 0.939447 174.807 211.074)" stroke="black" stroke-width="0.2"/>
<rect x="0.0597243" y="0.128079" width="4.78809" height="14.7387" transform="matrix(0.939938 0.341346 -0.342695 0.939447 260.624 211.074)" stroke="black" stroke-width="0.2"/>
<rect x="0.0597243" y="0.128079" width="4.78809" height="14.7387" transform="matrix(0.939938 0.341346 -0.342695 0.939447 342.45 211.074)" stroke="black" stroke-width="0.2"/>
<rect x="0.0597243" y="0.128079" width="4.78809" height="14.7387" transform="matrix(0.939938 0.341346 -0.342695 0.939447 6.16467 139.387)" stroke="black" stroke-width="0.2"/>
<rect x="0.0597243" y="0.128079" width="4.78809" height="14.7387" transform="matrix(0.939938 0.341346 -0.342695 0.939447 85.9947 141.379)" stroke="black" stroke-width="0.2"/>
<rect x="0.0597243" y="0.128079" width="4.78809" height="14.7387" transform="matrix(0.939938 0.341346 -0.342695 0.939447 170.815 141.379)" stroke="black" stroke-width="0.2"/>
<rect x="0.0597243" y="0.128079" width="4.78809" height="14.7387" transform="matrix(0.939938 0.341346 -0.342695 0.939447 256.633 141.379)" stroke="black" stroke-width="0.2"/>
<rect x="0.0597243" y="0.128079" width="4.78809" height="14.7387" transform="matrix(0.939938 0.341346 -0.342695 0.939447 338.46 141.379)" stroke="black" stroke-width="0.2"/>
<rect x="0.0597243" y="0.128079" width="4.78809" height="14.7387" transform="matrix(0.939938 0.341346 -0.342695 0.939447 5.16662 69.6917)" stroke="black" stroke-width="0.2"/>
<rect x="0.0597243" y="0.128079" width="4.78809" height="14.7387" transform="matrix(0.939938 0.341346 -0.342695 0.939447 84.9987 71.683)" stroke="black" stroke-width="0.2"/>
<rect x="0.0597243" y="0.128079" width="4.78809" height="14.7387" transform="matrix(0.939938 0.341346 -0.342695 0.939447 169.817 71.683)" stroke="black" stroke-width="0.2"/>
<rect x="0.0597243" y="0.128079" width="4.78809" height="14.7387" transform="matrix(0.939938 0.341346 -0.342695 0.939447 255.635 71.683)" stroke="black" stroke-width="0.2"/>
<rect x="0.0597243" y="0.128079" width="4.78809" height="14.7387" transform="matrix(0.939938 0.341346 -0.342695 0.939447 337.462 71.683)" stroke="black" stroke-width="0.2"/>
<rect x="0.0597243" y="0.128079" width="4.78809" height="14.7387" transform="matrix(0.939938 0.341346 -0.342695 0.939447 53.0651 175.231)" stroke="black" stroke-width="0.2"/>
<rect x="0.0597243" y="0.128079" width="4.78809" height="14.7387" transform="matrix(0.939938 0.341346 -0.342695 0.939447 132.895 177.222)" stroke="black" stroke-width="0.2"/>
<rect x="0.0597243" y="0.128079" width="4.78809" height="14.7387" transform="matrix(0.939938 0.341346 -0.342695 0.939447 217.715 177.222)" stroke="black" stroke-width="0.2"/>
<rect x="0.0597243" y="0.128079" width="4.78809" height="14.7387" transform="matrix(0.939938 0.341346 -0.342695 0.939447 303.534 177.222)" stroke="black" stroke-width="0.2"/>
<rect x="0.0597243" y="0.128079" width="4.78809" height="14.7387" transform="matrix(0.939938 0.341346 -0.342695 0.939447 385.36 177.222)" stroke="black" stroke-width="0.2"/>
<rect x="0.0597243" y="0.128079" width="4.78809" height="14.7387" transform="matrix(0.939938 0.341346 -0.342695 0.939447 10.1569 169.257)" stroke="black" stroke-width="0.2"/>
<rect x="0.0597243" y="0.128079" width="4.78809" height="14.7387" transform="matrix(0.939938 0.341346 -0.342695 0.939447 89.9869 171.248)" stroke="black" stroke-width="0.2"/>
<rect x="0.0597243" y="0.128079" width="4.78809" height="14.7387" transform="matrix(0.939938 0.341346 -0.342695 0.939447 174.807 171.248)" stroke="black" stroke-width="0.2"/>
<rect x="0.0597243" y="0.128079" width="4.78809" height="14.7387" transform="matrix(0.939938 0.341346 -0.342695 0.939447 260.624 171.248)" stroke="black" stroke-width="0.2"/>
<rect x="0.0597243" y="0.128079" width="4.78809" height="14.7387" transform="matrix(0.939938 0.341346 -0.342695 0.939447 342.45 171.248)" stroke="black" stroke-width="0.2"/>
<rect x="0.0597243" y="0.128079" width="4.78809" height="14.7387" transform="matrix(0.939938 0.341346 -0.342695 0.939447 6.16467 99.5613)" stroke="black" stroke-width="0.2"/>
<rect x="0.0597243" y="0.128079" width="4.78809" height="14.7387" transform="matrix(0.939938 0.341346 -0.342695 0.939447 85.9947 101.553)" stroke="black" stroke-width="0.2"/>
<rect x="0.0597243" y="0.128079" width="4.78809" height="14.7387" transform="matrix(0.939938 0.341346 -0.342695 0.939447 170.815 101.553)" stroke="black" stroke-width="0.2"/>
<rect x="0.0597243" y="0.128079" width="4.78809" height="14.7387" transform="matrix(0.939938 0.341346 -0.342695 0.939447 256.633 101.553)" stroke="black" stroke-width="0.2"/>
<rect x="0.0597243" y="0.128079" width="4.78809" height="14.7387" transform="matrix(0.939938 0.341346 -0.342695 0.939447 338.46 101.553)" stroke="black" stroke-width="0.2"/>
<rect x="0.0597243" y="0.128079" width="4.78809" height="14.7387" transform="matrix(0.939938 0.341346 -0.342695 0.939447 5.16662 29.8656)" stroke="black" stroke-width="0.2"/>
<rect x="0.0597243" y="0.128079" width="4.78809" height="14.7387" transform="matrix(0.939938 0.341346 -0.342695 0.939447 84.9987 31.8569)" stroke="black" stroke-width="0.2"/>
<rect x="0.0597243" y="0.128079" width="4.78809" height="14.7387" transform="matrix(0.939938 0.341346 -0.342695 0.939447 60.0514 53.7613)" stroke="black" stroke-width="0.2"/>
<rect x="0.0597243" y="0.128079" width="4.78809" height="14.7387" transform="matrix(0.939938 0.341346 -0.342695 0.939447 65.0397 5.96997)" stroke="black" stroke-width="0.2"/>
<rect x="0.0597243" y="0.128079" width="4.78809" height="14.7387" transform="matrix(0.939938 0.341346 -0.342695 0.939447 147.864 3.97867)" stroke="black" stroke-width="0.2"/>
<rect x="0.0597243" y="0.128079" width="4.78809" height="14.7387" transform="matrix(0.939938 0.341346 -0.342695 0.939447 233.682 1.98737)" stroke="black" stroke-width="0.2"/>
<rect x="0.0597243" y="0.128079" width="4.78809" height="14.7387" transform="matrix(0.939938 0.341346 -0.342695 0.939447 319.499 2.98302)" stroke="black" stroke-width="0.2"/>
<rect x="0.0597243" y="0.128079" width="4.78809" height="14.7387" transform="matrix(0.939938 0.341346 -0.342695 0.939447 314.51 55.7526)" stroke="black" stroke-width="0.2"/>
<rect x="0.0597243" y="0.128079" width="4.78809" height="14.7387" transform="matrix(0.939938 0.341346 -0.342695 0.939447 228.692 55.7526)" stroke="black" stroke-width="0.2"/>
<rect x="0.0597243" y="0.128079" width="4.78809" height="14.7387" transform="matrix(0.939938 0.341346 -0.342695 0.939447 142.876 55.7526)" stroke="black" stroke-width="0.2"/>
<rect x="0.0597243" y="0.128079" width="4.78809" height="14.7387" transform="matrix(0.939938 0.341346 -0.342695 0.939447 148.862 201.118)" stroke="black" stroke-width="0.2"/>
<rect x="0.0597243" y="0.128079" width="4.78809" height="14.7387" transform="matrix(0.939938 0.341346 -0.342695 0.939447 233.682 199.126)" stroke="black" stroke-width="0.2"/>
<rect x="0.0597243" y="0.128079" width="4.78809" height="14.7387" transform="matrix(0.939938 0.341346 -0.342695 0.939447 319.499 199.126)" stroke="black" stroke-width="0.2"/>
<rect x="0.0597243" y="0.128079" width="4.78809" height="14.7387" transform="matrix(0.939938 0.341346 -0.342695 0.939447 169.817 31.8569)" stroke="black" stroke-width="0.2"/>
<rect x="0.0597243" y="0.128079" width="4.78809" height="14.7387" transform="matrix(0.939938 0.341346 -0.342695 0.939447 255.635 31.8569)" stroke="black" stroke-width="0.2"/>
<rect x="0.0597243" y="0.128079" width="4.78809" height="14.7387" transform="matrix(0.939938 0.341346 -0.342695 0.939447 337.462 31.8569)" stroke="black" stroke-width="0.2"/>
<rect x="0.0597243" y="0.128079" width="4.78809" height="14.7387" transform="matrix(0.939938 0.341346 -0.342695 0.939447 63.0436 129.431)" stroke="black" stroke-width="0.2"/>
<rect x="0.0597243" y="0.128079" width="4.78809" height="14.7387" transform="matrix(0.939938 0.341346 -0.342695 0.939447 142.876 131.422)" stroke="black" stroke-width="0.2"/>
<rect x="0.0597243" y="0.128079" width="4.78809" height="14.7387" transform="matrix(0.939938 0.341346 -0.342695 0.939447 227.694 131.422)" stroke="black" stroke-width="0.2"/>
<rect x="0.0597243" y="0.128079" width="4.78809" height="14.7387" transform="matrix(0.939938 0.341346 -0.342695 0.939447 313.512 131.422)" stroke="black" stroke-width="0.2"/>
<rect x="0.0597243" y="0.128079" width="4.78809" height="14.7387" transform="matrix(0.939938 0.341346 -0.342695 0.939447 25.1256 183.196)" stroke="black" stroke-width="0.2"/>
<rect x="0.0597243" y="0.128079" width="4.78809" height="14.7387" transform="matrix(0.939938 0.341346 -0.342695 0.939447 104.956 185.187)" stroke="black" stroke-width="0.2"/>
<rect x="0.0597243" y="0.128079" width="4.78809" height="14.7387" transform="matrix(0.939938 0.341346 -0.342695 0.939447 189.774 185.187)" stroke="black" stroke-width="0.2"/>
<rect x="0.0597243" y="0.128079" width="4.78809" height="14.7387" transform="matrix(0.939938 0.341346 -0.342695 0.939447 275.592 185.187)" stroke="black" stroke-width="0.2"/>
<rect x="0.0597243" y="0.128079" width="4.78809" height="14.7387" transform="matrix(0.939938 0.341346 -0.342695 0.939447 357.419 185.187)" stroke="black" stroke-width="0.2"/>
<rect x="0.0597243" y="0.128079" width="4.78809" height="14.7387" transform="matrix(0.939938 0.341346 -0.342695 0.939447 21.1334 113.5)" stroke="black" stroke-width="0.2"/>
<rect x="0.0597243" y="0.128079" width="4.78809" height="14.7387" transform="matrix(0.939938 0.341346 -0.342695 0.939447 100.963 115.492)" stroke="black" stroke-width="0.2"/>
<rect x="0.0597243" y="0.128079" width="4.78809" height="14.7387" transform="matrix(0.939938 0.341346 -0.342695 0.939447 185.784 115.492)" stroke="black" stroke-width="0.2"/>
<rect x="0.0597243" y="0.128079" width="4.78809" height="14.7387" transform="matrix(0.939938 0.341346 -0.342695 0.939447 271.6 115.492)" stroke="black" stroke-width="0.2"/>
<rect x="0.0597243" y="0.128079" width="4.78809" height="14.7387" transform="matrix(0.939938 0.341346 -0.342695 0.939447 353.426 115.492)" stroke="black" stroke-width="0.2"/>
<rect x="0.0597243" y="0.128079" width="4.78809" height="14.7387" transform="matrix(0.939938 0.341346 -0.342695 0.939447 20.1354 43.8048)" stroke="black" stroke-width="0.2"/>
<rect x="0.0597243" y="0.128079" width="4.78809" height="14.7387" transform="matrix(0.939938 0.341346 -0.342695 0.939447 99.9654 45.7961)" stroke="black" stroke-width="0.2"/>
<rect x="0.0597243" y="0.128079" width="4.78809" height="14.7387" transform="matrix(0.939938 0.341346 -0.342695 0.939447 184.786 45.7961)" stroke="black" stroke-width="0.2"/>
<rect x="0.0597243" y="0.128079" width="4.78809" height="14.7387" transform="matrix(0.939938 0.341346 -0.342695 0.939447 270.602 45.7961)" stroke="black" stroke-width="0.2"/>
<rect x="0.0597243" y="0.128079" width="4.78809" height="14.7387" transform="matrix(0.939938 0.341346 -0.342695 0.939447 352.428 45.7961)" stroke="black" stroke-width="0.2"/>
<rect x="0.0597243" y="0.128079" width="4.78809" height="14.7387" transform="matrix(0.939938 0.341346 -0.342695 0.939447 48.0768 91.5961)" stroke="black" stroke-width="0.2"/>
<rect x="0.0597243" y="0.128079" width="4.78809" height="14.7387" transform="matrix(0.939938 0.341346 -0.342695 0.939447 127.907 93.5874)" stroke="black" stroke-width="0.2"/>
<rect x="0.0597243" y="0.128079" width="4.78809" height="14.7387" transform="matrix(0.939938 0.341346 -0.342695 0.939447 212.725 93.5874)" stroke="black" stroke-width="0.2"/>
<rect x="0.0597243" y="0.128079" width="4.78809" height="14.7387" transform="matrix(0.939938 0.341346 -0.342695 0.939447 298.544 93.5874)" stroke="black" stroke-width="0.2"/>
<rect x="0.0597243" y="0.128079" width="4.78809" height="14.7387" transform="matrix(0.939938 0.341346 -0.342695 0.939447 380.37 93.5874)" stroke="black" stroke-width="0.2"/>
<defs>
<linearGradient id="paint0_linear_3272_415" x1="195" y1="400.5" x2="195" y2="4.67661e-05" gradientUnits="userSpaceOnUse">
<stop stop-color="#361E90"/>
<stop offset="1" stop-color="#160520"/>
</linearGradient>
</defs>
</svg>
